<svg width="260" height="176" viewBox="0 0 260 176" fill="none" xmlns="http://www.w3.org/2000/svg">
<path d="M178.831 106.572L167.212 98.2369L168.919 92.0056L179.4 103.254L178.831 106.572Z" fill="#FF9CA8"/>
<path d="M187.2 110.7L179.319 103.174L177.531 105.682L186.388 111.833" fill="#A57468"/>
<path d="M170.463 107.867L174.281 120.977L163.963 140.4L161.281 140.238L167.456 121.787L161.769 107.22L170.463 107.867Z" fill="#1ED6C9"/>
<path d="M166.4 110.862L163.719 123.405L149.825 137.972L148.2 136.273L157.625 122.839L159.981 107.139L166.4 110.862Z" fill="#1ED6C9"/>
<path d="M166.725 89.0113L158.844 109.81L172.575 114.18L172.25 89.335L166.725 89.0113Z" fill="#EF596F"/>
<path d="M170.869 91.1963C168.131 91.1963 165.913 88.9861 165.913 86.2597C165.913 83.5334 168.131 81.3232 170.869 81.3232C173.606 81.3232 175.825 83.5334 175.825 86.2597C175.825 88.9861 173.606 91.1963 170.869 91.1963Z" fill="#A57468"/>
<path d="M168.919 92.572L175.581 106.411L174.038 109.486L165.425 97.9941L168.919 92.572Z" fill="#FF9CA8"/>
<path d="M184.519 112.48L173.956 109.243L175.5 106.249L185.169 111.104" fill="#A57468"/>
<path d="M171.681 83.5082C170.515 83.5082 169.569 82.5662 169.569 81.4041C169.569 80.242 170.515 79.3 171.681 79.3C172.848 79.3 173.794 80.242 173.794 81.4041C173.794 82.5662 172.848 83.5082 171.681 83.5082Z" fill="#FFDD17"/>
<path d="M168.513 83.9129C167.346 83.9129 166.4 82.9708 166.4 81.8088C166.4 80.6467 167.346 79.7047 168.513 79.7047C169.679 79.7047 170.625 80.6467 170.625 81.8088C170.625 82.9708 169.679 83.9129 168.513 83.9129Z" fill="#FFDD17"/>
<path d="M166.4 85.5314C165.233 85.5314 164.288 84.5894 164.288 83.4273C164.288 82.2652 165.233 81.3232 166.4 81.3232C167.567 81.3232 168.513 82.2652 168.513 83.4273C168.513 84.5894 167.567 85.5314 166.4 85.5314Z" fill="#FFDD17"/>
<path d="M174.281 84.4793C173.115 84.4793 172.169 83.5373 172.169 82.3752C172.169 81.2132 173.115 80.2711 174.281 80.2711C175.448 80.2711 176.394 81.2132 176.394 82.3752C176.394 83.5373 175.448 84.4793 174.281 84.4793Z" fill="#FFDD17"/>
<path d="M161.688 114.018C158.591 114.018 156.081 111.518 156.081 108.434C156.081 105.35 158.591 102.85 161.688 102.85C164.784 102.85 167.294 105.35 167.294 108.434C167.294 111.518 164.784 114.018 161.688 114.018Z" fill="#FCD900"/>
<g clip-path="url(#clip0)">
<path d="M141.501 127.725L139.64 148.2H137.616L135.673 128.213L141.501 127.725Z" fill="#D39E7A"/>
<path d="M131.383 127.238L127.498 147.306L124.989 146.981L125.717 126.913L131.383 127.238Z" fill="#D39E7A"/>
<path d="M124.989 128.619L132.517 130.244L133.002 117.163L125.555 114.319L124.989 128.619Z" fill="#1ED6C9"/>
<path d="M153.4 102.131L153.076 103.756L143.93 103.838H143.201L141.097 103.35L141.663 100.1L143.039 100.344L153.4 102.131Z" fill="#D39E7A"/>
<path d="M130.736 116.838L134.864 129.188L141.987 128.131L138.021 116.838H130.736Z" fill="#1ED6C9"/>
<path d="M144.011 104L143.201 103.838L141.097 103.35L128.469 100.75L127.417 93.6813L143.039 100.344L143.93 103.838L144.011 104Z" fill="#1ED6C9"/>
<path d="M125.475 87.1L123.775 116.513L138.992 118.138L133.731 86.125L125.475 87.1Z" fill="#FF9CA8"/>
<path d="M129.522 88.9687C132.517 88.9687 134.945 86.5315 134.945 83.525C134.945 80.5185 132.517 78.0812 129.522 78.0812C126.527 78.0812 124.098 80.5185 124.098 83.525C124.098 86.5315 126.527 88.9687 129.522 88.9687Z" fill="#D39E7A"/>
<path d="M129.684 95.3875L139.802 109.119L138.83 112.694L127.093 102.05L129.684 95.3875Z" fill="#1ED6C9"/>
<path d="M139.802 109.119L151.295 112.288L150.81 113.913L138.83 112.694L139.802 109.119Z" fill="#D39E7A"/>
<path d="M134.945 82.875C134.945 82.875 137.13 76.7813 133.164 76.7C133.083 76.7813 132.274 76.9438 132.274 77.5938C132.274 77.5938 127.012 76.2125 124.584 78.975C124.503 78.975 122.237 80.925 123.451 84.6625C123.451 84.7438 125.07 84.5 125.07 84.5C125.07 84.5 123.451 82.3063 127.012 80.6813C127.093 80.6 132.274 79.625 132.517 81.575C132.759 81.7375 134.945 82.875 134.945 82.875Z" fill="#38C656"/>
<path d="M128.712 107.331H110.5V113.1H128.712V107.331Z" fill="#38C656"/>
</g>
<g clip-path="url(#clip1)">
<path d="M60.6311 118.445L62.1866 132.154L54.6546 154.7L52.4441 154.122L54.1633 131.741L52.4441 116.133L60.6311 118.445Z" fill="#1ED6C9"/>
<path d="M49.9061 117.785L52.7715 132.815L48.5962 154.204H44.912L44.3389 131.907L38.6899 117.95L49.9061 117.785Z" fill="#1ED6C9"/>
<path d="M59.6487 103.084L59.2393 106.14L57.7657 105.562L56.0464 104.323L47.2044 98.1294L48.8418 91.7703L51.3798 94.413L59.4849 103.002L59.6487 103.084Z" fill="#18B8EF"/>
<path d="M68.9 108.865L68.1632 110.022L59.2393 106.14L57.7657 105.562L59.4031 102.919L59.4849 103.002L68.9 108.865Z" fill="#E7B9A6"/>
<path d="M44.0933 90.6967L37.5437 119.684L63.0053 119.271L49.2511 89.8708L44.0933 90.6967Z" fill="#38C656"/>
<path d="M46.6313 91.3574C43.8731 91.3574 41.6372 89.102 41.6372 86.3197C41.6372 83.5375 43.8731 81.282 46.6313 81.282C49.3894 81.282 51.6254 83.5375 51.6254 86.3197C51.6254 89.102 49.3894 91.3574 46.6313 91.3574Z" fill="#E7B9A6"/>
<path d="M47.5319 96.395L56.6195 109.196L55.637 112.416L44.9939 102.424L47.5319 96.395Z" fill="#18B8EF"/>
<path d="M56.6194 109.196L67.0988 112.334L66.6076 113.82L55.637 112.416L56.6194 109.196Z" fill="#E7B9A6"/>
<path d="M52.2804 84.5855L40.4911 86.072C40.0817 82.7686 42.3741 79.7955 45.6489 79.3826C48.9237 78.9697 51.871 81.2821 52.2804 84.5855Z" fill="#FCD900"/>
<path d="M44.5027 115.885C45.8126 115.885 47.6138 115.39 49.333 113.16L46.0582 110.6C45.6489 111.095 45.0758 111.756 44.4208 111.756C43.684 111.756 42.7834 111.013 42.4559 110.6L39.263 113.16C39.5905 113.49 41.5554 115.885 44.5027 115.885Z" fill="#FCD900"/>
<path d="M31.1579 115.885C32.4678 115.885 34.2689 115.39 35.9882 113.16L32.7134 110.6C32.304 111.095 31.731 111.756 31.076 111.756C30.3392 111.756 29.4386 111.013 29.1111 110.6L25.9182 113.16C26.2456 113.49 28.2105 115.885 31.1579 115.885Z" fill="#FCD900"/>
<path d="M39.4267 113.325L42.6196 110.765C42.374 110.517 40.4092 108.04 37.4618 108.04C36.2338 108.04 34.3508 108.535 32.6315 110.765L35.9063 113.325C36.3156 112.829 36.8887 112.169 37.5437 112.169C38.3624 112.169 39.263 113.077 39.4267 113.325Z" fill="#FCD900"/>
</g>
<g clip-path="url(#clip2)">
<path d="M85.0808 99.619L100.847 98.8792L103.087 101.51L88.8149 104.962L85.0808 99.619Z" fill="#18B8EF"/>
<path d="M89.2298 114.333L90.0596 126.992L83.6702 148.2L80.517 147.707L82.9234 126.91L82.0936 112.525L89.2298 114.333Z" fill="#38C656"/>
<path d="M83.8361 89.2616L81.3468 115.155L97.4447 115.402L89.6447 89.015L83.8361 89.2616Z" fill="#18B8EF"/>
<path d="M97.4447 115.319L101.179 126.663L99.2703 147.871H95.8681L94.7064 128.307L90.5575 115.319H97.4447Z" fill="#38C656"/>
<path d="M87.1553 90.5768C89.9508 90.5768 92.217 88.3318 92.217 85.5625C92.217 82.7932 89.9508 80.5482 87.1553 80.5482C84.3598 80.5482 82.0936 82.7932 82.0936 85.5625C82.0936 88.3318 84.3598 90.5768 87.1553 90.5768Z" fill="#A57468"/>
<path d="M92.217 80.2194C92.217 80.2194 91.0553 78.0822 87.1553 78C83.2553 77.9178 82.0106 79.3974 81.3468 80.2194C80.683 81.0414 80.683 90.5768 80.683 90.5768" fill="#EF596F"/>
<path d="M87.1553 90.5768L99.6021 100.194V103.647L86.4915 97.1529L87.1553 90.5768Z" fill="#18B8EF"/>
<path d="M100.764 98.6325L111.302 95.5089L111.8 96.9885L101.677 101.921L100.764 98.6325Z" fill="#A57468"/>
<path d="M99.6021 100.194H110.721V101.756L99.6021 103.647V100.194Z" fill="#A57468"/>
<path d="M81.8447 110.47C77.0319 110.47 73.0489 106.688 72.8 102.003H77.0319C77.0319 104.633 79.1894 106.77 81.8447 106.77C84.5 106.77 86.6574 104.633 86.6574 102.003H90.8894C90.6404 106.688 86.6574 110.47 81.8447 110.47Z" fill="#EF596F"/>
</g>
<g clip-path="url(#clip3)">
<path d="M216.959 92.1233L221.318 107.217L219.344 109.938L212.6 96.9895L216.959 92.1233Z" fill="#5B8D88"/>
<path d="M221.565 107.052L227.076 116.537L225.677 117.279L218.604 108.701L221.565 107.052Z" fill="#A57468"/>
<path d="M216.219 126.434L217.124 138.476L210.627 158.6L208.817 158.105L210.791 138.311L209.804 124.619L216.219 126.434Z" fill="#A57468"/>
<path d="M223.95 128.001L227.322 138.558L225.677 158.27H223.95L221.565 140.043L217.864 128.001H223.95Z" fill="#A57468"/>
<path d="M231.27 133.692H202.32L211.613 103.753L211.942 91.051L216.548 89.8964L223.045 114.31L231.27 133.692Z" fill="#1ED6C9"/>
<path d="M214.081 91.5459C211.31 91.5459 209.064 89.2934 209.064 86.5148C209.064 83.7362 211.31 81.4837 214.081 81.4837C216.852 81.4837 219.098 83.7362 219.098 86.5148C219.098 89.2934 216.852 91.5459 214.081 91.5459Z" fill="#A57468"/>
<path d="M215.726 94.1852L224.773 106.969L223.786 110.268L213.176 100.289L215.726 94.1852Z" fill="#38C656"/>
<path d="M224.773 106.969L235.3 110.103L234.889 111.588L223.786 110.268L224.773 106.969Z" fill="#A57468"/>
<path d="M213.341 86.1024C210.752 86.1024 208.653 83.9976 208.653 81.4012C208.653 78.8048 210.752 76.7 213.341 76.7C215.93 76.7 218.029 78.8048 218.029 81.4012C218.029 83.9976 215.93 86.1024 213.341 86.1024Z" fill="#FF9CA8"/>
<path d="M218.029 85.3601C216.439 85.3601 215.15 84.0677 215.15 82.4734C215.15 80.8792 216.439 79.5867 218.029 79.5867C219.618 79.5867 220.907 80.8792 220.907 82.4734C220.907 84.0677 219.618 85.3601 218.029 85.3601Z" fill="#FF9CA8"/>
<path d="M208.817 87.8345C206.909 87.8345 205.363 86.2836 205.363 84.3704C205.363 82.4573 206.909 80.9064 208.817 80.9064C210.725 80.9064 212.271 82.4573 212.271 84.3704C212.271 86.2836 210.725 87.8345 208.817 87.8345Z" fill="#FF9CA8"/>
<path d="M207.337 91.7933C205.429 91.7933 203.882 90.2424 203.882 88.3293C203.882 86.4161 205.429 84.8652 207.337 84.8652C209.245 84.8652 210.791 86.4161 210.791 88.3293C210.791 90.2424 209.245 91.7933 207.337 91.7933Z" fill="#FF9CA8"/>
<path d="M209.393 94.7625C207.803 94.7625 206.514 93.4701 206.514 91.8758C206.514 90.2816 207.803 88.9891 209.393 88.9891C210.983 88.9891 212.271 90.2816 212.271 91.8758C212.271 93.4701 210.983 94.7625 209.393 94.7625Z" fill="#FF9CA8"/>
<path d="M195 115.629H213.505V121.485H195V115.629Z" fill="#FF9CA8"/>
</g>
<circle cx="41.6" cy="165.1" r="10.4" fill="#666666"/>
<circle cx="62.4" cy="165.1" r="10.4" fill="#666666"/>
<circle cx="218.4" cy="165.1" r="10.4" fill="#666666"/>
<circle cx="197.6" cy="165.1" r="10.4" fill="#666666"/>
<circle cx="140.4" cy="165.1" r="10.4" fill="#666666"/>
<circle cx="119.6" cy="165.1" r="10.4" fill="#666666"/>
<path d="M74.1 4.85168L75.4 2.60002L102.42 18.2L129.44 33.8L128.14 36.0517L101.12 20.4517L74.1 4.85168Z" fill="#666666"/>
<circle cx="130" cy="44.2" r="10.4" fill="#C4C4C4"/>
<path d="M0 44.2H260V49.4V54.6H0V49.4V44.2Z" fill="#FFE886"/>
<path fill-rule="evenodd" clip-rule="evenodd" d="M260 54.6H0V163.8H260V54.6ZM57.2 75.4H36.4V96.2H57.2V75.4ZM78 75.4H98.8V96.2H78V75.4ZM140.4 75.4H119.6V96.2H140.4V75.4ZM161.2 75.4H182V96.2H161.2V75.4ZM223.6 75.4H202.8V96.2H223.6V75.4Z" fill="#EF5B6F"/>
<rect y="143" width="260" height="20.8" fill="#C4C4C4"/>
<path d="M68.9 0L79.3 0V2.6V5.2L68.9 5.2V2.6V0Z" fill="#666666"/>
<rect y="122.2" width="260" height="20.8" fill="#F59AA8"/>
<path d="M0 126.1H260V127.4V128.7H0V127.4V126.1Z" fill="#EF5A6F"/>
<path d="M0 131.3H260V132.6V133.9H0V132.6V131.3Z" fill="#EF5A6F"/>
<path d="M0 136.5H260V137.8V139.1H0V137.8V136.5Z" fill="#EF5A6F"/>
<path d="M0 44.2H260V45.5V46.8H0V45.5V44.2Z" fill="#FEDE10"/>
<defs>
<clipPath id="clip0">
<rect x="110.5" y="76.7" width="42.9" height="71.5" fill="white"/>
</clipPath>
<clipPath id="clip1">
<rect width="42.9" height="75.4" transform="matrix(-1 0 0 1 68.9 79.3)" fill="white"/>
</clipPath>
<clipPath id="clip2">
<rect x="72.8" y="78" width="39" height="70.2" fill="white"/>
</clipPath>
<clipPath id="clip3">
<rect width="40.3" height="81.9" transform="matrix(-1 0 0 1 235.3 76.7)" fill="white"/>
</clipPath>
</defs>
</svg>
