<svg width="1440" height="360" viewBox="0 0 1440 360" fill="none" xmlns="http://www.w3.org/2000/svg">
<line x1="619" y1="329" x2="3.49691e-07" y2="329" stroke="#FFE886" stroke-width="8" stroke-dasharray="8 8"/>
<circle cx="619" cy="328" r="16" fill="#FFE886"/>
<path d="M619 327.591L583.493 261.898L654.507 261.898L619 327.591Z" fill="#EF5A6F"/>
<circle cx="619" cy="254" r="40" fill="#F59AA8"/>
<g filter="url(#filter0_d)">
<path d="M605 217L591 271.215L596.091 283.08L608.5 239.735L619 262.471V243.233L605 217Z" fill="#EF5A6F"/>
</g>
<g filter="url(#filter1_d)">
<path d="M633 217L647 271.215L641.909 283.08L629.5 239.735L619 262.471V243.233L633 217Z" fill="#EF5A6F"/>
</g>
<path d="M620.12 243.32H617.32L619 262.36L620.12 243.32Z" fill="#EF5A6F"/>
<circle cx="619" cy="254" r="36" stroke="#EF5A6F" stroke-width="8"/>
<path d="M242.831 291.948L231.212 284.622L232.919 279.146L243.4 289.032L242.831 291.948Z" fill="#FF9CA8"/>
<path d="M251.2 295.576L243.319 288.961L241.531 291.166L250.387 296.572" fill="#A57468"/>
<path d="M234.462 293.086L238.281 304.609L227.962 321.68L225.281 321.537L231.456 305.32L225.769 292.517L234.462 293.086Z" fill="#1ED6C9"/>
<path d="M230.4 295.718L227.719 306.743L213.825 319.546L212.2 318.052L221.625 306.245L223.981 292.446L230.4 295.718Z" fill="#1ED6C9"/>
<path d="M230.725 276.514L222.844 294.794L236.575 298.634L236.25 276.798L230.725 276.514Z" fill="#EF596F"/>
<path d="M234.869 278.434C232.131 278.434 229.912 276.492 229.912 274.095C229.912 271.699 232.131 269.757 234.869 269.757C237.606 269.757 239.825 271.699 239.825 274.095C239.825 276.492 237.606 278.434 234.869 278.434Z" fill="#A57468"/>
<path d="M232.919 279.643L239.581 291.806L238.038 294.509L229.425 284.409L232.919 279.643Z" fill="#FF9CA8"/>
<path d="M248.519 297.141L237.956 294.296L239.5 291.664L249.169 295.932" fill="#A57468"/>
<path d="M235.681 271.677C234.515 271.677 233.569 270.849 233.569 269.828C233.569 268.806 234.515 267.979 235.681 267.979C236.848 267.979 237.794 268.806 237.794 269.828C237.794 270.849 236.848 271.677 235.681 271.677Z" fill="#FFDD17"/>
<path d="M232.513 272.033C231.346 272.033 230.4 271.205 230.4 270.183C230.4 269.162 231.346 268.334 232.513 268.334C233.679 268.334 234.625 269.162 234.625 270.183C234.625 271.205 233.679 272.033 232.513 272.033Z" fill="#FFDD17"/>
<path d="M230.4 273.455C229.233 273.455 228.287 272.627 228.287 271.606C228.287 270.585 229.233 269.757 230.4 269.757C231.567 269.757 232.512 270.585 232.512 271.606C232.512 272.627 231.567 273.455 230.4 273.455Z" fill="#FFDD17"/>
<path d="M238.281 272.531C237.115 272.531 236.169 271.703 236.169 270.681C236.169 269.66 237.115 268.832 238.281 268.832C239.448 268.832 240.394 269.66 240.394 270.681C240.394 271.703 239.448 272.531 238.281 272.531Z" fill="#FFDD17"/>
<path d="M225.687 298.492C222.591 298.492 220.081 296.295 220.081 293.584C220.081 290.874 222.591 288.677 225.687 288.677C228.784 288.677 231.294 290.874 231.294 293.584C231.294 296.295 228.784 298.492 225.687 298.492Z" fill="#FCD900"/>
<g clip-path="url(#clip0)">
<path d="M205.501 303.725L203.64 324.2H201.616L199.673 304.212L205.501 303.725Z" fill="#D39E7A"/>
<path d="M195.383 303.237L191.498 323.306L188.989 322.981L189.717 302.912L195.383 303.237Z" fill="#D39E7A"/>
<path d="M188.989 304.619L196.517 306.244L197.002 293.162L189.555 290.319L188.989 304.619Z" fill="#1ED6C9"/>
<path d="M217.4 278.131L217.076 279.756L207.929 279.837H207.201L205.096 279.35L205.663 276.1L207.039 276.344L217.4 278.131Z" fill="#D39E7A"/>
<path d="M194.736 292.837L198.864 305.187L205.987 304.131L202.021 292.837H194.736Z" fill="#1ED6C9"/>
<path d="M208.011 280L207.201 279.837L205.097 279.35L192.47 276.75L191.417 269.681L207.039 276.344L207.93 279.837L208.011 280Z" fill="#1ED6C9"/>
<path d="M189.474 263.1L187.775 292.512L202.992 294.137L197.731 262.125L189.474 263.1Z" fill="#FF9CA8"/>
<path d="M193.522 264.969C196.517 264.969 198.945 262.531 198.945 259.525C198.945 256.518 196.517 254.081 193.522 254.081C190.526 254.081 188.098 256.518 188.098 259.525C188.098 262.531 190.526 264.969 193.522 264.969Z" fill="#D39E7A"/>
<path d="M193.683 271.387L203.801 285.119L202.83 288.694L191.093 278.05L193.683 271.387Z" fill="#1ED6C9"/>
<path d="M203.801 285.119L215.295 288.287L214.81 289.912L202.83 288.694L203.801 285.119Z" fill="#D39E7A"/>
<path d="M198.945 258.875C198.945 258.875 201.13 252.781 197.164 252.7C197.083 252.781 196.274 252.944 196.274 253.594C196.274 253.594 191.012 252.212 188.584 254.975C188.503 254.975 186.237 256.925 187.451 260.662C187.451 260.744 189.07 260.5 189.07 260.5C189.07 260.5 187.451 258.306 191.012 256.681C191.093 256.6 196.274 255.625 196.517 257.575C196.759 257.737 198.945 258.875 198.945 258.875Z" fill="#38C656"/>
<path d="M192.712 283.331H174.5V289.1H192.712V283.331Z" fill="#38C656"/>
</g>
<g clip-path="url(#clip1)">
<path d="M124.631 294.445L126.187 308.154L118.654 330.7L116.444 330.122L118.163 307.741L116.444 292.133L124.631 294.445Z" fill="#1ED6C9"/>
<path d="M113.906 293.785L116.771 308.815L112.596 330.204H108.912L108.339 307.907L102.69 293.95L113.906 293.785Z" fill="#1ED6C9"/>
<path d="M123.649 279.084L123.239 282.14L121.766 281.562L120.046 280.323L111.204 274.129L112.842 267.77L115.38 270.413L123.485 279.002L123.649 279.084Z" fill="#18B8EF"/>
<path d="M132.9 284.865L132.163 286.022L123.239 282.14L121.766 281.562L123.403 278.919L123.485 279.002L132.9 284.865Z" fill="#E7B9A6"/>
<path d="M108.093 266.697L101.543 295.684L127.005 295.271L113.251 265.871L108.093 266.697Z" fill="#38C656"/>
<path d="M110.631 267.357C107.873 267.357 105.637 265.102 105.637 262.32C105.637 259.537 107.873 257.282 110.631 257.282C113.389 257.282 115.625 259.537 115.625 262.32C115.625 265.102 113.389 267.357 110.631 267.357Z" fill="#E7B9A6"/>
<path d="M111.532 272.395L120.619 285.196L119.637 288.416L108.994 278.424L111.532 272.395Z" fill="#18B8EF"/>
<path d="M120.619 285.196L131.099 288.334L130.607 289.82L119.637 288.416L120.619 285.196Z" fill="#E7B9A6"/>
<path d="M116.28 260.585L104.491 262.072C104.082 258.769 106.374 255.795 109.649 255.383C112.924 254.97 115.871 257.282 116.28 260.585Z" fill="#FCD900"/>
<path d="M108.503 291.885C109.813 291.885 111.614 291.39 113.333 289.16L110.058 286.6C109.649 287.095 109.076 287.756 108.421 287.756C107.684 287.756 106.783 287.013 106.456 286.6L103.263 289.16C103.59 289.49 105.555 291.885 108.503 291.885Z" fill="#FCD900"/>
<path d="M95.1579 291.885C96.4679 291.885 98.269 291.39 99.9883 289.16L96.7135 286.6C96.3041 287.095 95.731 287.756 95.0761 287.756C94.3392 287.756 93.4387 287.013 93.1112 286.6L89.9182 289.16C90.2457 289.49 92.2106 291.885 95.1579 291.885Z" fill="#FCD900"/>
<path d="M103.427 289.325L106.62 286.765C106.374 286.517 104.409 284.04 101.462 284.04C100.234 284.04 98.3507 284.535 96.6315 286.765L99.9063 289.325C100.316 288.829 100.889 288.169 101.544 288.169C102.362 288.169 103.263 289.077 103.427 289.325Z" fill="#FCD900"/>
</g>
<g clip-path="url(#clip2)">
<path d="M149.081 275.619L164.847 274.879L167.087 277.51L152.815 280.962L149.081 275.619Z" fill="#18B8EF"/>
<path d="M153.23 290.333L154.06 302.992L147.67 324.2L144.517 323.707L146.923 302.91L146.094 288.525L153.23 290.333Z" fill="#38C656"/>
<path d="M147.836 265.262L145.347 291.155L161.445 291.402L153.645 265.015L147.836 265.262Z" fill="#18B8EF"/>
<path d="M161.445 291.319L165.179 302.663L163.27 323.871H159.868L158.707 304.307L154.558 291.319H161.445Z" fill="#38C656"/>
<path d="M151.155 266.577C153.951 266.577 156.217 264.332 156.217 261.563C156.217 258.793 153.951 256.548 151.155 256.548C148.36 256.548 146.094 258.793 146.094 261.563C146.094 264.332 148.36 266.577 151.155 266.577Z" fill="#A57468"/>
<path d="M156.217 256.219C156.217 256.219 155.055 254.082 151.155 254C147.255 253.918 146.011 255.397 145.347 256.219C144.683 257.041 144.683 266.577 144.683 266.577" fill="#EF596F"/>
<path d="M151.155 266.577L163.602 276.194V279.647L150.491 273.153L151.155 266.577Z" fill="#18B8EF"/>
<path d="M164.764 274.633L175.302 271.509L175.8 272.989L165.677 277.921L164.764 274.633Z" fill="#A57468"/>
<path d="M163.602 276.194H174.721V277.756L163.602 279.647V276.194Z" fill="#A57468"/>
<path d="M145.845 286.47C141.032 286.47 137.049 282.688 136.8 278.003H141.032C141.032 280.633 143.189 282.77 145.845 282.77C148.5 282.77 150.657 280.633 150.657 278.003H154.889C154.64 282.688 150.657 286.47 145.845 286.47Z" fill="#EF596F"/>
</g>
<g clip-path="url(#clip3)">
<path d="M280.959 268.123L285.318 283.217L283.344 285.938L276.6 272.989L280.959 268.123Z" fill="#5B8D88"/>
<path d="M285.565 283.052L291.075 292.537L289.677 293.279L282.604 284.701L285.565 283.052Z" fill="#A57468"/>
<path d="M280.219 302.434L281.124 314.475L274.627 334.6L272.817 334.105L274.791 314.31L273.804 300.619L280.219 302.434Z" fill="#A57468"/>
<path d="M287.95 304.001L291.322 314.558L289.677 334.27H287.95L285.565 316.043L281.864 304.001H287.95Z" fill="#A57468"/>
<path d="M295.27 309.692H266.32L275.613 279.752L275.942 267.051L280.548 265.896L287.046 290.31L295.27 309.692Z" fill="#1ED6C9"/>
<path d="M278.081 267.546C275.31 267.546 273.064 265.293 273.064 262.515C273.064 259.736 275.31 257.484 278.081 257.484C280.851 257.484 283.098 259.736 283.098 262.515C283.098 265.293 280.851 267.546 278.081 267.546Z" fill="#A57468"/>
<path d="M279.726 270.185L288.773 282.969L287.786 286.268L277.176 276.288L279.726 270.185Z" fill="#38C656"/>
<path d="M288.773 282.969L299.3 286.103L298.889 287.588L287.786 286.268L288.773 282.969Z" fill="#A57468"/>
<path d="M277.341 262.102C274.752 262.102 272.653 259.998 272.653 257.401C272.653 254.805 274.752 252.7 277.341 252.7C279.93 252.7 282.029 254.805 282.029 257.401C282.029 259.998 279.93 262.102 277.341 262.102Z" fill="#FF9CA8"/>
<path d="M282.029 261.36C280.439 261.36 279.15 260.068 279.15 258.473C279.15 256.879 280.439 255.587 282.029 255.587C283.618 255.587 284.907 256.879 284.907 258.473C284.907 260.068 283.618 261.36 282.029 261.36Z" fill="#FF9CA8"/>
<path d="M272.817 263.834C270.909 263.834 269.363 262.284 269.363 260.37C269.363 258.457 270.909 256.906 272.817 256.906C274.725 256.906 276.271 258.457 276.271 260.37C276.271 262.284 274.725 263.834 272.817 263.834Z" fill="#FF9CA8"/>
<path d="M271.337 267.793C269.429 267.793 267.882 266.242 267.882 264.329C267.882 262.416 269.429 260.865 271.337 260.865C273.244 260.865 274.791 262.416 274.791 264.329C274.791 266.242 273.244 267.793 271.337 267.793Z" fill="#FF9CA8"/>
<path d="M273.393 270.762C271.803 270.762 270.514 269.47 270.514 267.876C270.514 266.281 271.803 264.989 273.393 264.989C274.983 264.989 276.271 266.281 276.271 267.876C276.271 269.47 274.983 270.762 273.393 270.762Z" fill="#FF9CA8"/>
<path d="M259 291.629H277.505V297.485H259V291.629Z" fill="#FF9CA8"/>
</g>
<circle cx="105.6" cy="341.1" r="10.4" fill="#666666"/>
<circle cx="126.4" cy="341.1" r="10.4" fill="#666666"/>
<circle cx="282.4" cy="341.1" r="10.4" fill="#666666"/>
<circle cx="261.6" cy="341.1" r="10.4" fill="#666666"/>
<circle cx="204.4" cy="341.1" r="10.4" fill="#666666"/>
<circle cx="183.6" cy="341.1" r="10.4" fill="#666666"/>
<path d="M138.1 201.852L139.4 199.6L166.42 215.2L193.44 230.8L192.14 233.052L165.12 217.452L138.1 201.852Z" fill="#666666"/>
<circle cx="194" cy="230.2" r="10.4" fill="#C4C4C4"/>
<path d="M64 230.2H324V235.4V240.6H64V235.4V230.2Z" fill="#FFE886"/>
<path fill-rule="evenodd" clip-rule="evenodd" d="M324 230.6H64V339.8H324V230.6ZM121.2 261.4H100.4V282.2H121.2V261.4ZM142 261.4H162.8V282.2H142V261.4ZM204.4 261.4H183.6V282.2H204.4V261.4ZM225.2 261.4H246V282.2H225.2V261.4ZM287.6 261.4H266.8V282.2H287.6V261.4Z" fill="#EF5B6F"/>
<rect x="64" y="319" width="260" height="20.8" fill="#C4C4C4"/>
<path d="M132.9 197H143.3V199.6V202.2H132.9V199.6V197Z" fill="#666666"/>
<rect x="64" y="298.2" width="260" height="20.8" fill="#F59AA8"/>
<path d="M64 302.1H324V303.4V304.7H64V303.4V302.1Z" fill="#EF5A6F"/>
<path d="M64 307.3H324V308.6V309.9H64V308.6V307.3Z" fill="#EF5A6F"/>
<path d="M64 312.5H324V313.8V315.1H64V313.8V312.5Z" fill="#EF5A6F"/>
<path d="M64 230.2H324V231.5V232.8H64V231.5V230.2Z" fill="#FEDE10"/>
<rect y="352" width="724" height="8" fill="#C4C4C4"/>
<g clip-path="url(#clip4)">
<path d="M1360.12 43.7006C1360.12 35.0547 1357.57 26.6029 1352.8 19.414C1348.03 12.2251 1341.26 6.6221 1333.33 3.31343C1325.4 0.00476533 1316.67 -0.860933 1308.26 0.825812C1299.84 2.51256 1292.11 6.67599 1286.04 12.7896C1279.97 18.9032 1275.83 26.6925 1274.16 35.1723C1272.49 43.6521 1273.35 52.4417 1276.63 60.4296C1279.91 68.4174 1285.48 75.2447 1292.61 80.0482C1299.75 84.8516 1308.14 87.4154 1316.72 87.4154C1322.42 87.4173 1328.06 86.2878 1333.33 84.0916C1338.6 81.8954 1343.38 78.6755 1347.41 74.6158C1351.44 70.5561 1354.64 65.7363 1356.82 60.4318C1359 55.1272 1360.12 49.4419 1360.12 43.7006V43.7006Z" fill="#30AAE1"/>
<path d="M914.933 77.1479H1004.78V351.514H914.933V77.1479Z" fill="#4EC2BD"/>
<path d="M959.859 77.1479H1004.78V351.514H959.859V77.1479Z" fill="#1CA6DF"/>
<path d="M966.191 104.358H997.723V112.49H966.191V104.358Z" fill="#4DC2BD"/>
<path d="M966.191 119.915H997.723V128.047H966.191V119.915Z" fill="#4DC2BD"/>
<path d="M966.191 135.925H997.723V144.057H966.191V135.925Z" fill="#4DC2BD"/>
<path d="M837.718 104.019H916.337V360H837.718V104.019Z" fill="#FFE886"/>
<path d="M877.028 104.019H916.337V360H877.028V104.019Z" fill="#FEDE10"/>
<path d="M1145.18 105.433H1208.35V360H1145.18V105.433Z" fill="#4DC2BD"/>
<path d="M1323.47 217.16H1393.67V360H1323.47V217.16Z" fill="#FFE886"/>
<path d="M1323.57 217.16H1393.7L1393.67 217.457L1393.22 216.99L1368.75 181.478L1358.64 166.812L1332.28 205.167L1331.9 205.732L1324.05 216.806L1323.57 217.16Z" fill="#FFE886"/>
<path d="M1358.57 167.024V360H1393.67V218.022L1393.53 217.853L1393.05 217.16L1358.57 167.024Z" fill="#FEDE10"/>
<path d="M1329.6 236.125H1372.71V239.703H1329.6V236.125Z" fill="#FFE886"/>
<path d="M1329.6 253.888H1372.71V257.466H1329.6V253.888Z" fill="#FFE886"/>
<path d="M1329.6 263.477H1372.71V267.055H1329.6V263.477Z" fill="#FFE886"/>
<path d="M1329.6 244.568H1372.71V248.146H1329.6V244.568Z" fill="#FFE886"/>
<path d="M1383.84 245.445H1440V360H1383.84V245.445Z" fill="#4FB857"/>
<path d="M1163.43 197.36H1220.99V360H1163.43V197.36Z" fill="#19A7E0"/>
<path d="M768.926 169.075H862.988V360H768.926V169.075Z" fill="#F59AA8"/>
<path d="M969.686 214.331H1027.25V360H969.686V214.331Z" fill="#FFE886"/>
<path d="M986.533 197.36H1044.09V360H986.533V197.36Z" fill="#FFE886"/>
<path d="M1329.61 236.125H1358.57V239.703H1329.61V236.125Z" fill="#FEDD12"/>
<path d="M1329.61 253.888H1358.57V257.466H1329.61V253.888Z" fill="#FEDD12"/>
<path d="M1329.61 263.477H1358.57V267.055H1329.61V263.477Z" fill="#FEDD12"/>
<path d="M1329.61 244.568H1358.57V248.146H1329.61V244.568Z" fill="#FEDD12"/>
<path d="M1009 197.36H1044.09V360H1009V197.36Z" fill="#FEDE10"/>
<path d="M882.643 169.075H976.706V360H882.643V169.075Z" fill="#F59AA8"/>
<path d="M930.376 169.075H976.706V360H930.376V169.075Z" fill="#EF5A6F"/>
<path d="M816.659 169.075H862.988V360H816.659V169.075Z" fill="#EF5A6F"/>
<path d="M1044.09 137.961H1133.95V360H1044.09V137.961Z" fill="#78CCC9"/>
<path d="M1089.02 137.961H1133.95V360H1089.02V137.961Z" fill="#19A7E0"/>
<path d="M1268.72 245.445V360H1323.47V276.587L1316.95 267.281L1316.72 266.942L1316.69 266.899L1316.46 266.56L1309.69 256.957L1302.05 246.308L1301.33 245.445H1268.72Z" fill="#4DC2BD"/>
<path d="M1017.76 225.193H1024.86V232.349H1017.76V225.193Z" fill="#FFE886"/>
<path d="M1005.29 225.193H1012.39V232.349H1005.29V225.193Z" fill="#FEDD12"/>
<path d="M992.837 225.193H999.941V232.349H992.837V225.193Z" fill="#FEDD12"/>
<path d="M992.837 252.247H999.941V259.404H992.837V252.247Z" fill="#FEDD12"/>
<path d="M1005.35 239.364H1012.45V246.52H1005.35V239.364Z" fill="#FEDD12"/>
<path d="M992.893 239.364H999.997V246.52H992.893V239.364Z" fill="#FEDD12"/>
<path d="M1393.04 260.167H1400.14V267.323H1393.04V260.167Z" fill="#99D095"/>
<path d="M1393.04 273.815H1400.14V280.971H1393.04V273.815Z" fill="#99D095"/>
<path d="M1393.04 300.884H1400.14V308.04H1393.04V300.884Z" fill="#99D095"/>
<path d="M1393.04 314.22H1400.14V321.376H1393.04V314.22Z" fill="#99D095"/>
<path d="M1393.09 288H1400.2V295.156H1393.09V288Z" fill="#99D095"/>
<path d="M1393.04 327.543H1400.14V334.699H1393.04V327.543Z" fill="#99D095"/>
<path d="M1275.43 259.899H1282.54V267.055H1275.43V259.899Z" fill="#19A7E0"/>
<path d="M1275.43 273.815H1282.54V280.971H1275.43V273.815Z" fill="#19A7E0"/>
<path d="M1288.87 273.815H1295.97V280.971H1288.87V273.815Z" fill="#19A7E0"/>
<path d="M1275.43 288H1282.54V295.156H1275.43V288Z" fill="#19A7E0"/>
<path d="M1288.87 288H1295.97V295.156H1288.87V288Z" fill="#19A7E0"/>
<path d="M1288.87 302.185H1295.97V309.341H1288.87V302.185Z" fill="#19A7E0"/>
<path d="M1208.35 50.277H1268.72V360H1208.35V50.277Z" fill="#F59AA8"/>
<path d="M1239.24 50.277H1268.72V360H1239.24V50.277Z" fill="#EF5B6F"/>
<path d="M1215.37 36.1343H1263.11V123.818H1215.37V36.1343Z" fill="#F59AA8"/>
<path d="M1239.24 36.1343H1263.11V123.818H1239.24V36.1343Z" fill="#EF5B6F"/>
<path d="M1208.35 50.277H1268.72V61.5911H1208.35V50.277Z" fill="#EF5A6F"/>
<path d="M1060.94 282.216H1195.72V360H1060.94V282.216Z" fill="#99D095"/>
<path d="M724 283.63H768.925V360H724V283.63Z" fill="#4FB857"/>
<path d="M1128.33 282.216H1195.72V360H1128.33V282.216Z" fill="#4FB857"/>
<path d="M1169 298.607H1176.1V305.763H1169V298.607Z" fill="#99D095"/>
<path d="M1139.59 298.607H1146.69V305.763H1139.59V298.607Z" fill="#99D095"/>
<path d="M1110.18 298.607H1117.28V305.763H1110.18V298.607Z" fill="#4FB858"/>
<path d="M1080.75 298.607H1087.85V305.763H1080.75V298.607Z" fill="#4FB858"/>
<path d="M1169 315.267H1176.1V322.423H1169V315.267Z" fill="#99D095"/>
<path d="M1139.59 315.267H1146.69V322.423H1139.59V315.267Z" fill="#99D095"/>
<path d="M1110.18 315.267H1117.28V322.423H1110.18V315.267Z" fill="#4FB858"/>
<path d="M1080.75 315.267H1087.85V322.423H1080.75V315.267Z" fill="#4FB858"/>
<path d="M1169 332.012H1176.1V339.168H1169V332.012Z" fill="#99D095"/>
<path d="M1139.59 332.012H1146.69V339.168H1139.59V332.012Z" fill="#99D095"/>
<path d="M1110.18 332.012H1117.28V339.168H1110.18V332.012Z" fill="#4FB858"/>
<path d="M1080.75 332.012H1087.85V339.168H1080.75V332.012Z" fill="#4FB858"/>
<path d="M768.968 182.92H828.143V191.052H768.968V182.92Z" fill="#F59AA8"/>
<path d="M727.369 304.787H756.95V312.919H727.369V304.787Z" fill="#99D095"/>
<path d="M727.369 318.845H756.95V326.977H727.369V318.845Z" fill="#99D095"/>
<path d="M727.369 333.652H756.95V341.784H727.369V333.652Z" fill="#99D095"/>
<path d="M1161.42 130.084H1208.51V138.216H1161.42V130.084Z" fill="#19A7E0"/>
<path d="M1161.42 154.466H1208.51V162.598H1161.42V154.466Z" fill="#19A7E0"/>
<path d="M1161.42 178.862H1208.51V186.993H1161.42V178.862Z" fill="#19A7E0"/>
<path d="M1059.13 158.722H1118.31V166.854H1059.13V158.722Z" fill="#19A7E0"/>
<path d="M1059.13 178.862H1118.31V186.993H1059.13V178.862Z" fill="#19A7E0"/>
<path d="M1059.13 199.001H1118.31V207.133H1059.13V199.001Z" fill="#19A7E0"/>
<path d="M1059.13 219.14H1118.31V227.272H1059.13V219.14Z" fill="#19A7E0"/>
<path d="M1059.13 239.279H1118.31V247.411H1059.13V239.279Z" fill="#19A7E0"/>
<path d="M1059.13 259.418H1118.31V267.55H1059.13V259.418Z" fill="#19A7E0"/>
<path d="M795.6 249.688H930.376V360H795.6V249.688Z" fill="#4DC2BD"/>
<path d="M956.56 192.226H963.664V199.382H956.56V192.226Z" fill="#F59AA8"/>
<path d="M936.357 192.226H943.461V199.382H936.357V192.226Z" fill="#F59AA8"/>
<path d="M956.56 211.078H963.664V218.235H956.56V211.078Z" fill="#F59AA8"/>
<path d="M936.357 211.078H943.461V218.235H936.357V211.078Z" fill="#F59AA8"/>
<path d="M956.56 229.916H963.664V237.073H956.56V229.916Z" fill="#F59AA8"/>
<path d="M936.357 229.916H943.461V237.073H936.357V229.916Z" fill="#F59AA8"/>
<path d="M956.56 248.754H963.664V255.91H956.56V248.754Z" fill="#F59AA8"/>
<path d="M936.357 248.754H943.461V255.91H936.357V248.754Z" fill="#F59AA8"/>
<path d="M956.56 267.592H963.664V274.748H956.56V267.592Z" fill="#F59AA8"/>
<path d="M936.357 267.592H943.461V274.748H936.357V267.592Z" fill="#F59AA8"/>
<path d="M956.56 286.43H963.664V293.586H956.56V286.43Z" fill="#F59AA8"/>
<path d="M936.357 286.43H943.461V293.586H936.357V286.43Z" fill="#F59AA8"/>
<path d="M956.56 305.282H963.664V312.438H956.56V305.282Z" fill="#F59AA8"/>
<path d="M936.357 305.282H943.461V312.438H936.357V305.282Z" fill="#F59AA8"/>
<path d="M956.56 324.12H963.664V331.276H956.56V324.12Z" fill="#F59AA8"/>
<path d="M936.357 324.12H943.461V331.276H936.357V324.12Z" fill="#F59AA8"/>
<path d="M956.56 342.958H963.664V350.114H956.56V342.958Z" fill="#F59AA8"/>
<path d="M936.357 342.958H943.461V350.114H936.357V342.958Z" fill="#F59AA8"/>
<path d="M916.155 192.226H923.259V199.382H916.155V192.226Z" fill="#EF5A6F"/>
<path d="M895.938 192.226H903.042V199.382H895.938V192.226Z" fill="#EF5A6F"/>
<path d="M916.155 211.078H923.259V218.235H916.155V211.078Z" fill="#EF5A6F"/>
<path d="M895.938 211.078H903.042V218.235H895.938V211.078Z" fill="#EF5A6F"/>
<path d="M916.155 229.916H923.259V237.073H916.155V229.916Z" fill="#EF5A6F"/>
<path d="M895.938 229.916H903.042V237.073H895.938V229.916Z" fill="#EF5A6F"/>
<path d="M916.155 248.754H923.259V255.91H916.155V248.754Z" fill="#EF5A6F"/>
<path d="M895.938 248.754H903.042V255.91H895.938V248.754Z" fill="#EF5A6F"/>
<path d="M916.155 267.592H923.259V274.748H916.155V267.592Z" fill="#EF5A6F"/>
<path d="M895.938 267.592H903.042V274.748H895.938V267.592Z" fill="#EF5A6F"/>
<path d="M916.155 286.43H923.259V293.586H916.155V286.43Z" fill="#EF5A6F"/>
<path d="M895.938 286.43H903.042V293.586H895.938V286.43Z" fill="#EF5A6F"/>
<path d="M916.155 305.282H923.259V312.438H916.155V305.282Z" fill="#EF5A6F"/>
<path d="M895.938 305.282H903.042V312.438H895.938V305.282Z" fill="#EF5A6F"/>
<path d="M916.155 324.12H923.259V331.276H916.155V324.12Z" fill="#EF5A6F"/>
<path d="M895.938 324.12H903.042V331.276H895.938V324.12Z" fill="#EF5A6F"/>
<path d="M916.155 342.958H923.259V350.114H916.155V342.958Z" fill="#EF5A6F"/>
<path d="M895.938 342.958H903.042V350.114H895.938V342.958Z" fill="#EF5A6F"/>
<path d="M862.988 249.688H930.376V360H862.988V249.688Z" fill="#19A7E0"/>
<path d="M900.543 275.569H909.542V291.027H900.543V275.569Z" fill="#4DC2BD"/>
<path d="M837.254 275.569H846.253V291.027H837.254V275.569Z" fill="#19A7E0"/>
<path d="M816.167 275.569H825.167V291.027H816.167V275.569Z" fill="#19A7E0"/>
<path d="M879.456 275.569H888.456V291.027H879.456V275.569Z" fill="#4DC2BD"/>
<path d="M858.355 275.569H867.354V291.027H858.355V275.569Z" fill="#4DC2BD"/>
<path d="M901.049 298.918H910.048V314.376H901.049V298.918Z" fill="#4DC2BD"/>
<path d="M837.76 298.918H846.759V314.376H837.76V298.918Z" fill="#19A7E0"/>
<path d="M816.659 298.918H825.658V314.376H816.659V298.918Z" fill="#19A7E0"/>
<path d="M879.948 298.918H888.947V314.376H879.948V298.918Z" fill="#4DC2BD"/>
<path d="M858.861 298.918H867.86V314.376H858.861V298.918Z" fill="#4DC2BD"/>
<path d="M900.796 322.253H909.795V337.711H900.796V322.253Z" fill="#4DC2BD"/>
<path d="M837.507 322.253H846.506V337.711H837.507V322.253Z" fill="#19A7E0"/>
<path d="M816.406 322.253H825.405V337.711H816.406V322.253Z" fill="#19A7E0"/>
<path d="M879.695 322.253H888.694V337.711H879.695V322.253Z" fill="#4DC2BD"/>
<path d="M858.608 322.253H867.607V337.711H858.608V322.253Z" fill="#4DC2BD"/>
<path d="M1254.64 74.7154H1261.74V81.8715H1254.64V74.7154Z" fill="#F59AA8"/>
<path d="M1254.64 87.9104H1261.74V95.0666H1254.64V87.9104Z" fill="#F59AA8"/>
<path d="M1254.64 100.653H1261.74V107.809H1254.64V100.653Z" fill="#F59AA8"/>
<path d="M1254.64 114.159H1261.74V121.315H1254.64V114.159Z" fill="#F59AA8"/>
<path d="M1254.64 126.506H1261.74V133.662H1254.64V126.506Z" fill="#F59AA8"/>
<path d="M1254.64 138.216H1261.74V145.372H1254.64V138.216Z" fill="#F59AA8"/>
<path d="M1254.64 150.887H1261.74V158.044H1254.64V150.887Z" fill="#F59AA8"/>
<path d="M1301.01 96.9476H1331.9V360H1301.01V96.9476Z" fill="#F59AA8"/>
<path d="M1316.45 99.7761H1331.9V360H1316.45V99.7761Z" fill="#EF5B6F"/>
<path d="M1301.01 94.119H1331.9V101.19H1301.01V94.119Z" fill="#EF5A6F"/>
<path d="M1301.01 108.262H1331.9V115.333H1301.01V108.262Z" fill="#EF5A6F"/>
<path d="M1273.34 43.7007C1273.34 52.3478 1275.88 60.8016 1280.65 67.9926C1285.42 75.1836 1292.19 80.7889 1300.12 84.0993C1308.05 87.4097 1316.78 88.2766 1325.2 86.5903C1333.62 84.904 1341.35 80.7403 1347.42 74.6258C1353.49 68.5113 1357.62 60.7208 1359.3 52.2397C1360.97 43.7585 1360.11 34.9677 1356.82 26.9793C1353.54 18.9909 1347.97 12.1637 1340.84 7.36138C1333.7 2.55901 1325.31 -0.00279479 1316.72 2.28802e-06C1305.22 0.00375095 1294.19 4.60912 1286.05 12.8038C1277.92 20.9984 1273.34 32.1117 1273.34 43.7007V43.7007Z" fill="#EF5B6F"/>
<path d="M1317.02 77.4308C1298.52 77.4308 1283.53 62.3293 1283.53 43.7007C1283.53 25.072 1298.52 9.97055 1317.02 9.97055C1335.51 9.97055 1350.5 25.072 1350.5 43.7007C1350.5 62.3293 1335.51 77.4308 1317.02 77.4308Z" fill="#EF5A6F"/>
<path d="M1286.02 43.7007C1286.51 60.7001 1299.78 74.9558 1317.02 74.9558C1325.22 74.8674 1333.05 71.5452 1338.85 65.702C1344.64 59.8587 1347.93 51.9601 1348.01 43.7007C1347.94 35.4428 1344.65 27.545 1338.85 21.7055C1333.05 15.8661 1325.21 12.5512 1317.02 12.4738C1299.78 12.4738 1286.51 26.7013 1286.02 43.7007C1285.92 46.9252 1280.95 46.9393 1281.03 43.7007C1281.47 28.7236 1290.12 15.3165 1304.18 9.89985C1311.26 7.22812 1318.99 6.84962 1326.29 8.81721C1333.59 10.7848 1340.09 15.0002 1344.9 20.8745C1365.51 46.4302 1342.74 85.2375 1310.54 79.34C1293.32 76.2004 1281.54 60.9546 1281.06 43.7007C1280.95 40.4761 1285.92 40.4761 1286.02 43.7007Z" fill="#F59AA8"/>
<path d="M1342.16 21.624L1294.81 69.2988C1294.34 69.7676 1293.71 70.0303 1293.05 70.029C1292.39 70.0276 1291.76 69.7624 1291.29 69.2917C1290.82 68.821 1290.56 68.1833 1290.56 67.5189C1290.57 66.8545 1290.83 66.2178 1291.3 65.749L1338.65 18.0742C1339.12 17.6054 1339.75 17.3427 1340.41 17.3441C1341.07 17.3454 1341.7 17.6106 1342.17 18.0813C1342.63 18.552 1342.89 19.1898 1342.89 19.8541C1342.89 20.5185 1342.63 21.1552 1342.16 21.624V21.624Z" fill="#F59AA8"/>
<path d="M1327.91 13.0536L1286.21 55.0572C1285.98 55.2893 1285.71 55.4733 1285.41 55.5986C1285.1 55.7239 1284.78 55.788 1284.45 55.7874C1284.13 55.7867 1283.8 55.7213 1283.5 55.5948C1283.2 55.4683 1282.93 55.2832 1282.7 55.0501C1282.47 54.817 1282.28 54.5405 1282.16 54.2363C1282.04 53.9321 1281.97 53.6062 1281.97 53.2773C1281.97 52.9483 1282.04 52.6227 1282.16 52.319C1282.29 52.0153 1282.47 51.7395 1282.7 51.5074L1324.39 9.51799C1324.85 9.04726 1325.48 8.78206 1326.14 8.78074C1326.8 8.77941 1327.44 9.04207 1327.9 9.51092C1328.37 9.97978 1328.63 10.6164 1328.64 11.2808C1328.64 11.9452 1328.38 12.5829 1327.91 13.0536V13.0536Z" fill="#F59AA8"/>
<path d="M1350.15 35.2434L1308.45 77.2328C1307.97 77.646 1307.36 77.8621 1306.73 77.838C1306.1 77.8138 1305.5 77.5511 1305.06 77.1025C1304.61 76.6538 1304.35 76.0523 1304.33 75.4183C1304.3 74.7843 1304.52 74.1645 1304.93 73.683L1346.6 31.6936C1347.06 31.2191 1347.7 30.9511 1348.36 30.9484C1349.03 30.9458 1349.66 31.2087 1350.13 31.6795C1350.61 32.1502 1350.87 32.7901 1350.87 33.4585C1350.88 34.1269 1350.62 34.7689 1350.15 35.2434V35.2434Z" fill="#F59AA8"/>
<path d="M803.813 210.272H862.988V218.404H803.813V210.272Z" fill="#EF5A6F"/>
<path d="M1089.02 158.722H1118.31V166.854H1089.02V158.722Z" fill="#4DC2BD"/>
<path d="M1089.02 178.862H1118.31V186.993H1089.02V178.862Z" fill="#4DC2BD"/>
<path d="M1089.02 199.001H1118.31V207.133H1089.02V199.001Z" fill="#4DC2BD"/>
<path d="M1089.02 219.14H1118.31V227.272H1089.02V219.14Z" fill="#4DC2BD"/>
<path d="M1089.02 239.279H1118.31V247.411H1089.02V239.279Z" fill="#4DC2BD"/>
<path d="M1089.02 259.418H1118.31V267.55H1089.02V259.418Z" fill="#4DC2BD"/>
<path d="M768.968 182.92H816.659V191.052H768.968V182.92Z" fill="#EF5A6F"/>
<path d="M816.659 210.272H862.988V218.404H816.659V210.272Z" fill="#F59AA8"/>
<path d="M858.355 275.569H862.988V291.027H858.355V275.569Z" fill="#19A7E0"/>
<path d="M858.861 298.918H862.988V314.376H858.861V298.918Z" fill="#19A7E0"/>
<path d="M858.608 322.253H862.988V337.711H858.608V322.253Z" fill="#19A7E0"/>
<path d="M1239.24 50.277H1268.72V61.5911H1239.24V50.277Z" fill="#F59AA8"/>
<path d="M1316.45 94.119H1331.9V101.19H1316.45V94.119Z" fill="#F59AA8"/>
<path d="M1316.45 108.262H1331.9V115.333H1316.45V108.262Z" fill="#F59AA8"/>
<path d="M1008.84 225.193H1012.42V232.349H1008.84V225.193Z" fill="#FFE886"/>
<path d="M1008.87 239.364H1012.45V246.52H1008.87V239.364Z" fill="#FFE886"/>
</g>
<defs>
<filter id="filter0_d" x="590" y="217" width="30" height="71.08" filterUnits="userSpaceOnUse" color-interpolation-filters="sRGB">
<feFlood flood-opacity="0" result="BackgroundImageFix"/>
<feColorMatrix in="SourceAlpha" type="matrix" values="0 0 0 0 0 0 0 0 0 0 0 0 0 0 0 0 0 0 127 0"/>
<feOffset dy="4"/>
<feGaussianBlur stdDeviation="0.5"/>
<feColorMatrix type="matrix" values="0 0 0 0 0 0 0 0 0 0 0 0 0 0 0 0 0 0 0.25 0"/>
<feBlend mode="normal" in2="BackgroundImageFix" result="effect1_dropShadow"/>
<feBlend mode="normal" in="SourceGraphic" in2="effect1_dropShadow" result="shape"/>
</filter>
<filter id="filter1_d" x="618" y="217" width="30" height="71.08" filterUnits="userSpaceOnUse" color-interpolation-filters="sRGB">
<feFlood flood-opacity="0" result="BackgroundImageFix"/>
<feColorMatrix in="SourceAlpha" type="matrix" values="0 0 0 0 0 0 0 0 0 0 0 0 0 0 0 0 0 0 127 0"/>
<feOffset dy="4"/>
<feGaussianBlur stdDeviation="0.5"/>
<feColorMatrix type="matrix" values="0 0 0 0 0 0 0 0 0 0 0 0 0 0 0 0 0 0 0.25 0"/>
<feBlend mode="normal" in2="BackgroundImageFix" result="effect1_dropShadow"/>
<feBlend mode="normal" in="SourceGraphic" in2="effect1_dropShadow" result="shape"/>
</filter>
<clipPath id="clip0">
<rect x="174.5" y="252.7" width="42.9" height="71.5" fill="white"/>
</clipPath>
<clipPath id="clip1">
<rect width="42.9" height="75.4" transform="matrix(-1 0 0 1 132.9 255.3)" fill="white"/>
</clipPath>
<clipPath id="clip2">
<rect x="136.8" y="254" width="39" height="70.2" fill="white"/>
</clipPath>
<clipPath id="clip3">
<rect width="40.3" height="81.9" transform="matrix(-1 0 0 1 299.3 252.7)" fill="white"/>
</clipPath>
<clipPath id="clip4">
<rect width="716" height="360" transform="matrix(-1 0 0 1 1440 0)" fill="white"/>
</clipPath>
</defs>
</svg>
