<svg width="835" height="171" viewBox="0 0 835 171" fill="none" xmlns="http://www.w3.org/2000/svg">
<path d="M429.266 122.126L419.828 116.175L421.214 111.727L429.728 119.758L429.266 122.126Z" fill="#FF9CA8"/>
<path d="M436.063 125.073L429.662 119.7L428.21 121.491L435.403 125.882" fill="#A57468"/>
<path d="M422.467 123.051L425.569 132.411L417.187 146.277L415.009 146.161L420.025 132.988L415.405 122.589L422.467 123.051Z" fill="#1ED6C9"/>
<path d="M419.167 125.189L416.99 134.144L405.704 144.544L404.384 143.33L412.04 133.739L413.954 122.531L419.167 125.189Z" fill="#1ED6C9"/>
<path d="M419.431 109.589L413.029 124.437L424.183 127.557L423.919 109.82L419.431 109.589Z" fill="#EF596F"/>
<path d="M422.798 111.149C420.574 111.149 418.772 109.571 418.772 107.624C418.772 105.678 420.574 104.1 422.798 104.1C425.021 104.1 426.824 105.678 426.824 107.624C426.824 109.571 425.021 111.149 422.798 111.149Z" fill="#A57468"/>
<path d="M421.213 112.131L426.625 122.011L425.371 124.206L418.375 116.002L421.213 112.131Z" fill="#FF9CA8"/>
<path d="M433.885 126.344L425.305 124.033L426.559 121.895L434.413 125.362" fill="#A57468"/>
<path d="M423.457 105.66C422.509 105.66 421.741 104.987 421.741 104.158C421.741 103.328 422.509 102.656 423.457 102.656C424.405 102.656 425.173 103.328 425.173 104.158C425.173 104.987 424.405 105.66 423.457 105.66Z" fill="#FFDD17"/>
<path d="M420.883 105.949C419.935 105.949 419.167 105.276 419.167 104.447C419.167 103.617 419.935 102.945 420.883 102.945C421.83 102.945 422.599 103.617 422.599 104.447C422.599 105.276 421.83 105.949 420.883 105.949Z" fill="#FFDD17"/>
<path d="M419.167 107.104C418.22 107.104 417.451 106.432 417.451 105.602C417.451 104.773 418.22 104.1 419.167 104.1C420.115 104.1 420.883 104.773 420.883 105.602C420.883 106.432 420.115 107.104 419.167 107.104Z" fill="#FFDD17"/>
<path d="M425.569 106.353C424.621 106.353 423.853 105.681 423.853 104.851C423.853 104.022 424.621 103.349 425.569 103.349C426.516 103.349 427.285 104.022 427.285 104.851C427.285 105.681 426.516 106.353 425.569 106.353Z" fill="#FFDD17"/>
<path d="M415.34 127.442C412.825 127.442 410.786 125.657 410.786 123.455C410.786 121.254 412.825 119.469 415.34 119.469C417.855 119.469 419.894 121.254 419.894 123.455C419.894 125.657 417.855 127.442 415.34 127.442Z" fill="#FCD900"/>
<g clip-path="url(#clip0)">
<path d="M398.942 131.692L397.429 148.324H395.786L394.208 132.088L398.942 131.692Z" fill="#D39E7A"/>
<path d="M390.723 131.296L387.567 147.598L385.528 147.334L386.12 131.032L390.723 131.296Z" fill="#D39E7A"/>
<path d="M385.528 132.418L391.643 133.738L392.038 123.113L385.989 120.803L385.528 132.418Z" fill="#1ED6C9"/>
<path d="M408.607 110.903L408.344 112.223L400.914 112.289H400.322L398.613 111.893L399.073 109.253L400.191 109.451L408.607 110.903Z" fill="#D39E7A"/>
<path d="M390.197 122.849L393.55 132.88L399.336 132.022L396.114 122.849H390.197Z" fill="#1ED6C9"/>
<path d="M400.98 112.421L400.322 112.289L398.613 111.893L388.356 109.781L387.501 104.039L400.191 109.451L400.914 112.289L400.98 112.421Z" fill="#1ED6C9"/>
<path d="M385.923 98.6929L384.542 122.585L396.903 123.905L392.629 97.9009L385.923 98.6929Z" fill="#FF9CA8"/>
<path d="M389.21 100.211C391.643 100.211 393.616 98.231 393.616 95.7889C393.616 93.3467 391.643 91.3669 389.21 91.3669C386.777 91.3669 384.805 93.3467 384.805 95.7889C384.805 98.231 386.777 100.211 389.21 100.211Z" fill="#D39E7A"/>
<path d="M389.342 105.425L397.561 116.579L396.772 119.483L387.238 110.837L389.342 105.425Z" fill="#1ED6C9"/>
<path d="M397.56 116.579L406.897 119.153L406.502 120.473L396.771 119.483L397.56 116.579Z" fill="#D39E7A"/>
<path d="M393.616 95.2609C393.616 95.2609 395.391 90.3109 392.169 90.2449C392.103 90.3109 391.446 90.4429 391.446 90.9709C391.446 90.9709 387.172 89.849 385.2 92.0929C385.134 92.0929 383.293 93.6769 384.279 96.7129C384.279 96.7789 385.594 96.5809 385.594 96.5809C385.594 96.5809 384.279 94.7989 387.172 93.4789C387.238 93.4129 391.446 92.6209 391.643 94.2049C391.84 94.3369 393.616 95.2609 393.616 95.2609Z" fill="#38C656"/>
<path d="M388.553 115.127H373.759V119.813H388.553V115.127Z" fill="#38C656"/>
</g>
<g clip-path="url(#clip1)">
<path d="M333.251 124.155L334.515 135.29L328.396 153.604L326.601 153.135L327.997 134.955L326.601 122.276L333.251 124.155Z" fill="#1ED6C9"/>
<path d="M324.539 123.618L326.867 135.827L323.475 153.202H320.482L320.017 135.089L315.428 123.752L324.539 123.618Z" fill="#1ED6C9"/>
<path d="M332.453 111.677L332.121 114.159L330.924 113.69L329.527 112.683L322.345 107.652L323.675 102.487L325.736 104.633L332.32 111.61L332.453 111.677Z" fill="#18B8EF"/>
<path d="M339.968 116.373L339.369 117.312L332.12 114.159L330.923 113.69L332.253 111.543L332.32 111.61L339.968 116.373Z" fill="#E7B9A6"/>
<path d="M319.817 101.614L314.497 125.161L335.179 124.825L324.007 100.944L319.817 101.614Z" fill="#38C656"/>
<path d="M321.879 102.151C319.638 102.151 317.822 100.319 317.822 98.0591C317.822 95.7991 319.638 93.967 321.879 93.967C324.119 93.967 325.936 95.7991 325.936 98.0591C325.936 100.319 324.119 102.151 321.879 102.151Z" fill="#E7B9A6"/>
<path d="M322.611 106.243L329.993 116.641L329.195 119.257L320.549 111.14L322.611 106.243Z" fill="#18B8EF"/>
<path d="M329.992 116.641L338.505 119.19L338.106 120.398L329.194 119.257L329.992 116.641Z" fill="#E7B9A6"/>
<path d="M326.468 96.6503L316.891 97.8578C316.559 95.1745 318.421 92.7595 321.081 92.4241C323.741 92.0886 326.135 93.967 326.468 96.6503Z" fill="#FCD900"/>
<path d="M320.15 122.075C321.214 122.075 322.677 121.672 324.074 119.861L321.414 117.782C321.081 118.184 320.616 118.721 320.084 118.721C319.485 118.721 318.753 118.117 318.487 117.782L315.894 119.861C316.16 120.13 317.756 122.075 320.15 122.075Z" fill="#FCD900"/>
<path d="M309.31 122.075C310.374 122.075 311.837 121.672 313.234 119.861L310.574 117.782C310.241 118.184 309.776 118.721 309.244 118.721C308.645 118.721 307.914 118.117 307.648 117.782L305.054 119.861C305.32 120.13 306.916 122.075 309.31 122.075Z" fill="#FCD900"/>
<path d="M316.027 119.995L318.621 117.916C318.421 117.715 316.825 115.702 314.431 115.702C313.433 115.702 311.904 116.105 310.507 117.916L313.167 119.995C313.5 119.593 313.965 119.056 314.497 119.056C315.162 119.056 315.894 119.794 316.027 119.995Z" fill="#FCD900"/>
</g>
<g clip-path="url(#clip2)">
<path d="M353.111 108.862L365.917 108.261L367.737 110.398L356.144 113.202L353.111 108.862Z" fill="#18B8EF"/>
<path d="M356.481 120.814L357.155 131.097L351.965 148.324L349.404 147.924L351.359 131.03L350.684 119.345L356.481 120.814Z" fill="#38C656"/>
<path d="M352.1 100.449L350.078 121.482L363.154 121.682L356.818 100.248L352.1 100.449Z" fill="#18B8EF"/>
<path d="M363.154 121.615L366.187 130.83L364.637 148.057H361.873L360.93 132.165L357.56 121.615H363.154Z" fill="#38C656"/>
<path d="M354.796 101.517C357.067 101.517 358.908 99.6935 358.908 97.444C358.908 95.1945 357.067 93.3709 354.796 93.3709C352.525 93.3709 350.685 95.1945 350.685 97.444C350.685 99.6935 352.525 101.517 354.796 101.517Z" fill="#A57468"/>
<path d="M358.908 93.1038C358.908 93.1038 357.964 91.3678 354.796 91.301C351.628 91.2342 350.617 92.4361 350.078 93.1038C349.539 93.7716 349.539 101.517 349.539 101.517" fill="#EF596F"/>
<path d="M354.796 101.517L364.907 109.329V112.134L354.257 106.859L354.796 101.517Z" fill="#18B8EF"/>
<path d="M365.85 108.061L374.41 105.523L374.815 106.725L366.592 110.732L365.85 108.061Z" fill="#A57468"/>
<path d="M364.906 109.329H373.938V110.598L364.906 112.134V109.329Z" fill="#A57468"/>
<path d="M350.482 117.676C346.573 117.676 343.337 114.604 343.135 110.798H346.573C346.573 112.935 348.325 114.671 350.482 114.671C352.639 114.671 354.392 112.935 354.392 110.798H357.829C357.627 114.604 354.392 117.676 350.482 117.676Z" fill="#EF596F"/>
</g>
<g clip-path="url(#clip3)">
<path d="M460.236 102.773L463.777 115.034L462.173 117.244L456.695 106.726L460.236 102.773Z" fill="#5B8D88"/>
<path d="M463.978 114.9L468.454 122.604L467.318 123.207L461.572 116.239L463.978 114.9Z" fill="#A57468"/>
<path d="M459.635 130.644L460.37 140.425L455.092 156.772L453.623 156.37L455.226 140.291L454.424 129.17L459.635 130.644Z" fill="#A57468"/>
<path d="M465.915 131.917L468.654 140.492L467.318 156.504H465.915L463.977 141.698L460.971 131.917H465.915Z" fill="#A57468"/>
<path d="M471.861 136.539H448.345L455.894 112.22L456.161 101.902L459.902 100.964L465.18 120.795L471.861 136.539Z" fill="#1ED6C9"/>
<path d="M457.898 102.304C455.647 102.304 453.823 100.475 453.823 98.2175C453.823 95.9604 455.647 94.1307 457.898 94.1307C460.149 94.1307 461.973 95.9604 461.973 98.2175C461.973 100.475 460.149 102.304 457.898 102.304Z" fill="#A57468"/>
<path d="M459.234 104.448L466.583 114.833L465.781 117.512L457.163 109.406L459.234 104.448Z" fill="#38C656"/>
<path d="M466.583 114.833L475.134 117.378L474.8 118.584L465.781 117.512L466.583 114.833Z" fill="#A57468"/>
<path d="M457.297 97.8825C455.194 97.8825 453.489 96.1728 453.489 94.0637C453.489 91.9547 455.194 90.2449 457.297 90.2449C459.4 90.2449 461.105 91.9547 461.105 94.0637C461.105 96.1728 459.4 97.8825 457.297 97.8825Z" fill="#FF9CA8"/>
<path d="M461.105 97.2795C459.814 97.2795 458.767 96.2297 458.767 94.9347C458.767 93.6396 459.814 92.5898 461.105 92.5898C462.396 92.5898 463.443 93.6396 463.443 94.9347C463.443 96.2297 462.396 97.2795 461.105 97.2795Z" fill="#FF9CA8"/>
<path d="M453.623 99.2894C452.073 99.2894 450.817 98.0296 450.817 96.4756C450.817 94.9216 452.073 93.6618 453.623 93.6618C455.172 93.6618 456.429 94.9216 456.429 96.4756C456.429 98.0296 455.172 99.2894 453.623 99.2894Z" fill="#FF9CA8"/>
<path d="M452.42 102.505C450.871 102.505 449.614 101.245 449.614 99.6914C449.614 98.1374 450.871 96.8776 452.42 96.8776C453.97 96.8776 455.226 98.1374 455.226 99.6914C455.226 101.245 453.97 102.505 452.42 102.505Z" fill="#FF9CA8"/>
<path d="M454.09 104.917C452.799 104.917 451.752 103.867 451.752 102.572C451.752 101.277 452.799 100.227 454.09 100.227C455.382 100.227 456.429 101.277 456.429 102.572C456.429 103.867 455.382 104.917 454.09 104.917Z" fill="#FF9CA8"/>
<path d="M442.399 121.867H457.43V126.624H442.399V121.867Z" fill="#FF9CA8"/>
</g>
<circle cx="317.792" cy="162.052" r="8.4479" fill="#666666"/>
<circle cx="334.687" cy="162.052" r="8.4479" fill="#666666"/>
<circle cx="461.406" cy="162.052" r="8.4479" fill="#666666"/>
<circle cx="444.511" cy="162.052" r="8.4479" fill="#666666"/>
<circle cx="398.047" cy="162.052" r="8.4479" fill="#666666"/>
<circle cx="381.151" cy="162.052" r="8.4479" fill="#666666"/>
<path d="M344.192 48.941L345.248 47.1119L367.196 59.7838L389.144 72.4557L388.088 74.2847L366.14 61.6128L344.192 48.941Z" fill="#666666"/>
<circle cx="389.598" cy="71.9683" r="8.4479" fill="#C4C4C4"/>
<path d="M284 71.9683H495.197V76.1922V80.4162H284V76.1922V71.9683Z" fill="#FFE886"/>
<path fill-rule="evenodd" clip-rule="evenodd" d="M495.197 72.2932H284V160.996H495.197V72.2932ZM330.463 97.312H313.568V114.208H330.463V97.312ZM347.36 97.312H364.255V114.208H347.36V97.312ZM398.047 97.312H381.151V114.208H398.047V97.312ZM414.943 97.312H431.839V114.208H414.943V97.312ZM465.629 97.312H448.733V114.208H465.629V97.312Z" fill="#EF5B6F"/>
<rect x="284" y="144.1" width="211.197" height="16.8958" fill="#C4C4C4"/>
<path d="M339.968 45H348.416V47.112V49.2239H339.968V47.112V45Z" fill="#666666"/>
<rect x="284" y="127.205" width="211.197" height="16.8958" fill="#F59AA8"/>
<path d="M284 130.372H495.197V131.428V132.484H284V131.428V130.372Z" fill="#EF5A6F"/>
<path d="M284 134.596H495.197V135.652V136.708H284V135.652V134.596Z" fill="#EF5A6F"/>
<path d="M284 138.82H495.197V139.876V140.932H284V139.876V138.82Z" fill="#EF5A6F"/>
<path d="M284 71.9683H495.197V73.0243V74.0803H284V73.0243V71.9683Z" fill="#FEDE10"/>
<path d="M8.92 12.08H16.056C18.8933 12.08 21.0373 12.5813 22.488 13.584C23.9387 14.5867 24.664 16.368 24.664 18.928C24.664 20.656 24.44 22.032 23.992 23.056C23.544 24.08 22.712 24.88 21.496 25.456L25.048 38H19.128L16.28 26.384H14.648V38H8.92V12.08ZM16.248 23.088C17.4 23.088 18.2 22.7893 18.648 22.192C19.1173 21.5733 19.352 20.656 19.352 19.44C19.352 18.2667 19.1387 17.392 18.712 16.816C18.2853 16.2187 17.5493 15.92 16.504 15.92H14.648V23.088H16.248ZM28.1395 12.08H33.8675V38H28.1395V12.08ZM37.7325 12.08H44.2925C46.5325 12.08 48.2818 12.3573 49.5405 12.912C50.7992 13.4667 51.6845 14.3413 52.1965 15.536C52.7298 16.7093 52.9965 18.288 52.9965 20.272V29.68C52.9965 31.6853 52.7298 33.2853 52.1965 34.48C51.6845 35.6747 50.7992 36.56 49.5405 37.136C48.3032 37.712 46.5752 38 44.3565 38H37.7325V12.08ZM44.3565 34.032C45.1885 34.032 45.7965 33.9147 46.1805 33.68C46.5858 33.424 46.8418 33.072 46.9485 32.624C47.0552 32.1547 47.1085 31.472 47.1085 30.576V19.28C47.1085 18.448 47.0445 17.8187 46.9165 17.392C46.8098 16.944 46.5538 16.6133 46.1485 16.4C45.7645 16.1867 45.1565 16.08 44.3245 16.08H43.4605V34.032H44.3565ZM56.4825 12.08H68.1305V15.984H62.2105V22.416H66.7225V26.384H62.2105V34.128H68.1945V38H56.4825V12.08ZM78.9825 12.08H90.1825V15.952H84.7105V22.48H89.4785V26.48H84.7105V38H78.9825V12.08ZM100.282 38.384C97.4868 38.384 95.4922 37.6693 94.2975 36.24C93.1028 34.7893 92.5055 32.656 92.5055 29.84V20.208C92.5055 17.392 93.1028 15.28 94.2975 13.872C95.4922 12.4427 97.4868 11.728 100.282 11.728C103.098 11.728 105.103 12.4427 106.298 13.872C107.514 15.3013 108.122 17.4133 108.122 20.208V29.84C108.122 32.656 107.514 34.7893 106.298 36.24C105.103 37.6693 103.098 38.384 100.282 38.384ZM100.282 34.32C101.092 34.32 101.626 34.0533 101.882 33.52C102.138 32.9653 102.266 32.2187 102.266 31.28V18.8C102.266 17.84 102.138 17.0933 101.882 16.56C101.626 16.0267 101.092 15.76 100.282 15.76C99.5135 15.76 99.0015 16.0373 98.7455 16.592C98.4895 17.1253 98.3615 17.8613 98.3615 18.8V31.28C98.3615 32.2187 98.4788 32.9653 98.7135 33.52C98.9482 34.0533 99.4708 34.32 100.282 34.32ZM111.608 12.08H118.744C121.581 12.08 123.725 12.5813 125.176 13.584C126.626 14.5867 127.352 16.368 127.352 18.928C127.352 20.656 127.128 22.032 126.68 23.056C126.232 24.08 125.4 24.88 124.184 25.456L127.736 38H121.816L118.968 26.384H117.336V38H111.608V12.08ZM118.936 23.088C120.088 23.088 120.888 22.7893 121.336 22.192C121.805 21.5733 122.04 20.656 122.04 19.44C122.04 18.2667 121.826 17.392 121.4 16.816C120.973 16.2187 120.237 15.92 119.192 15.92H117.336V23.088H118.936ZM138.983 12.08H150.183V15.952H144.711V22.48H149.479V26.48H144.711V38H138.983V12.08ZM152.858 12.08H159.994C162.831 12.08 164.975 12.5813 166.426 13.584C167.876 14.5867 168.602 16.368 168.602 18.928C168.602 20.656 168.378 22.032 167.93 23.056C167.482 24.08 166.65 24.88 165.434 25.456L168.986 38H163.066L160.218 26.384H158.586V38H152.858V12.08ZM160.186 23.088C161.338 23.088 162.138 22.7893 162.586 22.192C163.055 21.5733 163.29 20.656 163.29 19.44C163.29 18.2667 163.076 17.392 162.65 16.816C162.223 16.2187 161.487 15.92 160.442 15.92H158.586V23.088H160.186ZM172.045 12.08H183.693V15.984H177.773V22.416H182.285V26.384H177.773V34.128H183.757V38H172.045V12.08ZM186.358 12.08H198.006V15.984H192.086V22.416H196.598V26.384H192.086V34.128H198.07V38H186.358V12.08ZM216.282 38.384C213.487 38.384 211.492 37.6693 210.298 36.24C209.103 34.7893 208.506 32.656 208.506 29.84V20.208C208.506 17.392 209.103 15.28 210.298 13.872C211.492 12.4427 213.487 11.728 216.282 11.728C219.098 11.728 221.103 12.4427 222.298 13.872C223.514 15.3013 224.122 17.4133 224.122 20.208V29.84C224.122 32.656 223.514 34.7893 222.298 36.24C221.103 37.6693 219.098 38.384 216.282 38.384ZM216.282 34.32C217.092 34.32 217.626 34.0533 217.882 33.52C218.138 32.9653 218.266 32.2187 218.266 31.28V18.8C218.266 17.84 218.138 17.0933 217.882 16.56C217.626 16.0267 217.092 15.76 216.282 15.76C215.514 15.76 215.002 16.0373 214.746 16.592C214.49 17.1253 214.362 17.8613 214.362 18.8V31.28C214.362 32.2187 214.479 32.9653 214.714 33.52C214.948 34.0533 215.471 34.32 216.282 34.32ZM227.608 12.08H231.64L236.952 24.56V12.08H241.688V38H237.816L232.504 24.56V38H227.608V12.08ZM256.069 16.336H252.165V12.08H265.701V16.336H261.829V38H256.069V16.336ZM268.079 12.08H273.807V22.576H277.807V12.08H283.567V38H277.807V26.672H273.807V38H268.079V12.08ZM287.514 12.08H299.162V15.984H293.242V22.416H297.754V26.384H293.242V34.128H299.226V38H287.514V12.08Z" fill="black"/>
<path d="M6.532 54.48H24.196L32.384 97.812L41.216 54.48H58.236L59.524 129H47.84L46.46 79.412L37.812 129H27.416L18.216 79.044L17.112 129H5.244L6.532 54.48ZM70.6653 91.924H94.4933V101.492H70.6653V91.924ZM105.786 54.48H122.254V117.868H139.366V129H105.786V54.48ZM146.667 54.48H163.135V129H146.667V54.48ZM174.247 54.48H185.839L201.111 90.36V54.48H214.727V129H203.595L188.323 90.36V129H174.247V54.48ZM225.817 54.48H259.305V65.704H242.285V84.196H255.257V95.604H242.285V117.868H259.489V129H225.817V54.48Z" fill="black"/>
<line x1="6" y1="46.5" x2="835" y2="46.5" stroke="black"/>
<g clip-path="url(#clip4)">
<path d="M693.934 30.3989L682.87 25.6573L683.417 20.7929L693.937 27.8519L693.934 30.3989Z" fill="#FF9CA8"/>
<path d="M701.632 32.4145L693.857 27.8019L692.702 29.9L701.107 33.3627" fill="#A57468"/>
<path d="M687.019 32.4274L692.154 41.7207L686.204 57.5173L683.905 57.7371L686.479 43.191L679.548 33.0485L687.019 32.4274Z" fill="#1ED6C9"/>
<path d="M684.005 35.1765L683.542 44.8728L673.856 57.5018L672.231 56.4406L678.289 45.2241L678.02 33.2151L684.005 35.1765Z" fill="#1ED6C9"/>
<path d="M681.124 18.8382L677.44 35.3514L689.724 36.8672L685.859 18.378L681.124 18.8382Z" fill="#EF596F"/>
<path d="M684.955 19.9417C682.633 20.2893 680.43 18.9226 680.036 16.8892C679.642 14.8557 681.206 12.9254 683.529 12.5778C685.852 12.2303 688.054 13.5969 688.448 15.6304C688.842 17.6639 687.278 19.5941 684.955 19.9417Z" fill="#A57468"/>
<path d="M683.499 21.2154L691.153 30.6909L690.287 33.1806L681.318 25.7032L683.499 21.2154Z" fill="#FF9CA8"/>
<path d="M699.614 34.0829L690.183 33.0098L691.061 30.5805L699.967 32.9743" fill="#A57468"/>
<path d="M684.535 14.1044C683.544 14.2525 682.606 13.67 682.438 12.8033C682.27 11.9366 682.936 11.1138 683.927 10.9657C684.917 10.8175 685.855 11.4001 686.023 12.2668C686.191 13.1335 685.525 13.9562 684.535 14.1044Z" fill="#FFDD17"/>
<path d="M681.904 14.8086C680.914 14.9567 679.975 14.3742 679.807 13.5075C679.639 12.6407 680.306 11.818 681.296 11.6699C682.286 11.5217 683.224 12.1042 683.392 12.971C683.56 13.8377 682.894 14.6604 681.904 14.8086Z" fill="#FFDD17"/>
<path d="M680.345 16.284C679.355 16.4322 678.416 15.8497 678.248 14.9829C678.081 14.1162 678.747 13.2935 679.737 13.1453C680.727 12.9972 681.666 13.5797 681.834 14.4464C682.002 15.3131 681.335 16.1359 680.345 16.284Z" fill="#FFDD17"/>
<path d="M686.881 14.4985C685.891 14.6467 684.952 14.0642 684.785 13.1974C684.617 12.3307 685.283 11.508 686.273 11.3598C687.263 11.2117 688.202 11.7942 688.37 12.6609C688.538 13.5276 687.871 14.3504 686.881 14.4985Z" fill="#FFDD17"/>
<path d="M680.461 38.129C677.834 38.5222 675.343 36.9763 674.897 34.6761C674.452 32.376 676.22 30.1926 678.848 29.7994C681.475 29.4062 683.967 30.9521 684.412 33.2523C684.858 35.5524 683.089 37.7358 680.461 38.129Z" fill="#FCD900"/>
</g>
<g clip-path="url(#clip5)">
<path d="M632.153 41.8699L633.585 55.4609H635.142L636.636 42.1935L632.153 41.8699Z" fill="#D39E7A"/>
<path d="M639.936 41.5463L642.925 54.8677L644.855 54.6519L644.295 41.3305L639.936 41.5463Z" fill="#D39E7A"/>
<path d="M644.855 42.4631L639.064 43.5418L638.691 34.8586L644.419 32.9709L644.855 42.4631Z" fill="#1ED6C9"/>
<path d="M623 24.881L623.249 25.9596L630.285 26.0136H630.845L632.464 25.69L632.029 23.5327L630.97 23.6945L623 24.881Z" fill="#D39E7A"/>
<path d="M640.434 34.6428L637.259 42.8406L631.779 42.1395L634.83 34.6428H640.434Z" fill="#1ED6C9"/>
<path d="M630.223 26.1215L630.845 26.0136L632.464 25.69L642.177 23.9641L642.987 19.272L630.97 23.6945L630.285 26.0136L630.223 26.1215Z" fill="#1ED6C9"/>
<path d="M644.482 14.9034L645.789 34.4271L634.083 35.5058L638.131 14.2562L644.482 14.9034Z" fill="#FF9CA8"/>
<path d="M641.368 16.1439C639.064 16.1439 637.197 14.526 637.197 12.5304C637.197 10.5347 639.064 8.91685 641.368 8.91685C643.672 8.91685 645.54 10.5347 645.54 12.5304C645.54 14.526 643.672 16.1439 641.368 16.1439Z" fill="#D39E7A"/>
<path d="M641.243 20.4046L633.46 29.5192L634.208 31.8923L643.236 24.8271L641.243 20.4046Z" fill="#1ED6C9"/>
<path d="M633.46 29.5192L624.619 31.6226L624.992 32.7012L634.208 31.8923L633.46 29.5192Z" fill="#D39E7A"/>
<path d="M637.196 12.0989C637.196 12.0989 635.515 8.05393 638.566 8C638.629 8.05393 639.251 8.1618 639.251 8.59326C639.251 8.59326 643.298 7.6764 645.166 9.51012C645.229 9.51012 646.972 10.8045 646.038 13.2854C646.038 13.3394 644.793 13.1776 644.793 13.1776C644.793 13.1776 646.038 11.7214 643.298 10.6427C643.236 10.5888 639.251 9.94158 639.064 11.236C638.878 11.3438 637.196 12.0989 637.196 12.0989Z" fill="#38C656"/>
<path d="M641.991 28.3327H656V32.1619H641.991V28.3327Z" fill="#38C656"/>
</g>
<g clip-path="url(#clip6)">
<path d="M593.832 36.4036L594.992 45.5123L589.374 60.4922L587.725 60.1081L589.007 45.2379L587.725 34.8672L593.832 36.4036Z" fill="#1ED6C9"/>
<path d="M585.832 35.9646L587.969 45.9513L584.855 60.163H582.107L581.679 45.3477L577.465 36.0744L585.832 35.9646Z" fill="#1ED6C9"/>
<path d="M593.099 26.1975L592.794 28.2278L591.695 27.8437L590.412 27.0206L583.817 22.9052L585.038 18.6801L586.931 20.436L592.977 26.1427L593.099 26.1975Z" fill="#18B8EF"/>
<path d="M600 30.0385L599.45 30.8067L592.794 28.2278L591.695 27.8437L592.916 26.0878L592.977 26.1427L600 30.0385Z" fill="#E7B9A6"/>
<path d="M581.496 17.9668L576.611 37.2267L595.603 36.9523L585.343 17.4181L581.496 17.9668Z" fill="#38C656"/>
<path d="M583.389 18.4058C581.332 18.4058 579.664 16.9072 579.664 15.0586C579.664 13.21 581.332 11.7114 583.389 11.7114C585.446 11.7114 587.114 13.21 587.114 15.0586C587.114 16.9072 585.446 18.4058 583.389 18.4058Z" fill="#E7B9A6"/>
<path d="M584.061 21.7529L590.84 30.258L590.107 32.398L582.168 25.7585L584.061 21.7529Z" fill="#18B8EF"/>
<path d="M590.839 30.258L598.656 32.3431L598.29 33.3308L590.107 32.398L590.839 30.258Z" fill="#E7B9A6"/>
<path d="M587.603 13.9063L578.809 14.894C578.504 12.6991 580.214 10.7238 582.656 10.4494C585.099 10.175 587.298 11.7115 587.603 13.9063Z" fill="#FCD900"/>
<path d="M581.802 34.7026C582.779 34.7026 584.122 34.3734 585.405 32.8919L582.962 31.1908C582.657 31.5201 582.229 31.959 581.741 31.959C581.191 31.959 580.519 31.4652 580.275 31.1908L577.893 32.8919C578.138 33.1113 579.603 34.7026 581.802 34.7026Z" fill="#FCD900"/>
<path d="M571.848 34.7026C572.825 34.7026 574.168 34.3734 575.451 32.8919L573.008 31.1908C572.703 31.5201 572.275 31.959 571.787 31.959C571.237 31.959 570.565 31.4652 570.321 31.1908L567.939 32.8919C568.184 33.1113 569.649 34.7026 571.848 34.7026Z" fill="#FCD900"/>
<path d="M578.015 33.0016L580.397 31.3006C580.214 31.136 578.748 29.4898 576.55 29.4898C575.634 29.4898 574.229 29.819 572.947 31.3006L575.389 33.0016C575.695 32.6724 576.122 32.2334 576.611 32.2334C577.221 32.2334 577.893 32.837 578.015 33.0016Z" fill="#FCD900"/>
</g>
<g clip-path="url(#clip7)">
<path d="M722.505 13.2619L719.152 23.3042L720.67 25.1151L725.858 16.4996L722.505 13.2619Z" fill="#5B8D88"/>
<path d="M718.962 23.1945L714.724 29.5053L715.799 29.9992L721.24 24.292L718.962 23.1945Z" fill="#A57468"/>
<path d="M723.074 36.0904L722.378 44.1024L727.376 57.4922L728.768 57.1629L727.25 43.9926L728.009 34.8831L723.074 36.0904Z" fill="#A57468"/>
<path d="M717.128 37.1331L714.534 44.1572L715.799 57.2727H717.128L718.962 45.145L721.809 37.1331H717.128Z" fill="#A57468"/>
<path d="M711.497 40.9195H733.766L726.617 20.9994L726.364 12.5485L722.822 11.7802L717.824 28.0236L711.497 40.9195Z" fill="#1ED6C9"/>
<path d="M724.72 12.8777C726.851 12.8777 728.579 11.379 728.579 9.53029C728.579 7.68154 726.851 6.18283 724.72 6.18283C722.588 6.18283 720.86 7.68154 720.86 9.53029C720.86 11.379 722.588 12.8777 724.72 12.8777Z" fill="#A57468"/>
<path d="M723.454 14.6338L716.495 23.1396L717.254 25.3347L725.416 18.6946L723.454 14.6338Z" fill="#38C656"/>
<path d="M716.495 23.1396L708.397 25.2249L708.713 26.2127L717.254 25.3347L716.495 23.1396Z" fill="#A57468"/>
<path d="M725.289 9.2559C727.28 9.2559 728.895 7.85547 728.895 6.12795C728.895 4.40043 727.28 3 725.289 3C723.297 3 721.683 4.40043 721.683 6.12795C721.683 7.85547 723.297 9.2559 725.289 9.2559Z" fill="#FF9CA8"/>
<path d="M721.683 8.76201C722.905 8.76201 723.897 7.9021 723.897 6.84134C723.897 5.78058 722.905 4.92067 721.683 4.92067C720.46 4.92067 719.468 5.78058 719.468 6.84134C719.468 7.9021 720.46 8.76201 721.683 8.76201Z" fill="#FF9CA8"/>
<path d="M728.768 10.4083C730.236 10.4083 731.426 9.37642 731.426 8.10351C731.426 6.8306 730.236 5.79871 728.768 5.79871C727.301 5.79871 726.111 6.8306 726.111 8.10351C726.111 9.37642 727.301 10.4083 728.768 10.4083Z" fill="#FF9CA8"/>
<path d="M729.907 13.0423C731.375 13.0423 732.564 12.0105 732.564 10.7375C732.564 9.46464 731.375 8.43274 729.907 8.43274C728.44 8.43274 727.25 9.46464 727.25 10.7375C727.25 12.0105 728.44 13.0423 729.907 13.0423Z" fill="#FF9CA8"/>
<path d="M728.326 15.0179C729.549 15.0179 730.54 14.158 730.54 13.0972C730.54 12.0365 729.549 11.1766 728.326 11.1766C727.103 11.1766 726.111 12.0365 726.111 13.0972C726.111 14.158 727.103 15.0179 728.326 15.0179Z" fill="#FF9CA8"/>
<path d="M739.397 28.9016H725.162V32.7978H739.397V28.9016Z" fill="#FF9CA8"/>
</g>
<path d="M529.236 66.716H518.012V54.48H556.928V66.716H545.796V129H529.236V66.716ZM563.489 54.48H584.005C592.162 54.48 598.326 55.9213 602.497 58.804C606.667 61.6867 608.753 66.808 608.753 74.168C608.753 79.136 608.109 83.092 606.821 86.036C605.533 88.98 603.141 91.28 599.645 92.936L609.857 129H592.837L584.649 95.604H579.957V129H563.489V54.48ZM584.557 86.128C587.869 86.128 590.169 85.2693 591.457 83.552C592.806 81.7733 593.481 79.136 593.481 75.64C593.481 72.2667 592.867 69.752 591.641 68.096C590.414 66.3787 588.298 65.52 585.293 65.52H579.957V86.128H584.557ZM639.278 130.104C631.243 130.104 625.509 128.049 622.074 123.94C618.639 119.769 616.922 113.636 616.922 105.54V77.848C616.922 69.752 618.639 63.68 622.074 59.632C625.509 55.5227 631.243 53.468 639.278 53.468C647.374 53.468 653.139 55.5227 656.574 59.632C660.07 63.7413 661.818 69.8133 661.818 77.848V105.54C661.818 113.636 660.07 119.769 656.574 123.94C653.139 128.049 647.374 130.104 639.278 130.104ZM639.278 118.42C641.609 118.42 643.142 117.653 643.878 116.12C644.614 114.525 644.982 112.379 644.982 109.68V73.8C644.982 71.04 644.614 68.8933 643.878 67.36C643.142 65.8267 641.609 65.06 639.278 65.06C637.07 65.06 635.598 65.8573 634.862 67.452C634.126 68.9853 633.758 71.1013 633.758 73.8V109.68C633.758 112.379 634.095 114.525 634.77 116.12C635.445 117.653 636.947 118.42 639.278 118.42ZM671.84 54.48H688.308V117.868H705.42V129H671.84V54.48ZM712.629 54.48H729.097V117.868H746.209V129H712.629V54.48ZM753.418 54.48H786.906V65.704H769.886V84.196H782.858V95.604H769.886V117.868H787.09V129H753.418V54.48ZM803.951 98.548L789.783 54.48H805.331L812.415 78.032L818.763 54.48H833.667L819.775 98.548V129H803.951V98.548Z" fill="black"/>
<defs>
<clipPath id="clip0">
<rect x="373.759" y="90.2449" width="34.8476" height="58.0793" fill="white"/>
</clipPath>
<clipPath id="clip1">
<rect width="34.8476" height="61.2472" transform="matrix(-1 0 0 1 339.968 92.357)" fill="white"/>
</clipPath>
<clipPath id="clip2">
<rect x="343.135" y="91.301" width="31.6796" height="57.0233" fill="white"/>
</clipPath>
<clipPath id="clip3">
<rect width="32.7356" height="66.5272" transform="matrix(-1 0 0 1 475.134 90.2449)" fill="white"/>
</clipPath>
<clipPath id="clip4">
<rect width="33.4644" height="46.4186" transform="matrix(-0.988989 0.147991 0.190178 0.98175 697.096 8.99503)" fill="white"/>
</clipPath>
<clipPath id="clip5">
<rect width="33" height="47.4609" transform="matrix(-1 0 0 1 656 8)" fill="white"/>
</clipPath>
<clipPath id="clip6">
<rect width="32" height="50.0977" transform="matrix(-1 0 0 1 600 10.3945)" fill="white"/>
</clipPath>
<clipPath id="clip7">
<rect x="708.397" y="3" width="31" height="54.4922" fill="white"/>
</clipPath>
</defs>
</svg>
