<svg width="1440" height="360" viewBox="0 0 1440 360" fill="none" xmlns="http://www.w3.org/2000/svg">
<line x1="619" y1="329" x2="3.49691e-07" y2="329" stroke="#FFE886" stroke-width="8" stroke-dasharray="8 8"/>
<circle cx="619" cy="328" r="16" fill="#FFE886"/>
<path d="M619 327.591L583.493 261.898L654.507 261.898L619 327.591Z" fill="#EF5A6F"/>
<circle cx="619" cy="254" r="40" fill="#F59AA8"/>
<g filter="url(#filter0_d)">
<path d="M605 217L591 271.215L596.091 283.08L608.5 239.735L619 262.471V243.233L605 217Z" fill="#EF5A6F"/>
</g>
<g filter="url(#filter1_d)">
<path d="M633 217L647 271.215L641.909 283.08L629.5 239.735L619 262.471V243.233L633 217Z" fill="#EF5A6F"/>
</g>
<path d="M620.12 243.32H617.32L619 262.36L620.12 243.32Z" fill="#EF5A6F"/>
<circle cx="619" cy="254" r="36" stroke="#EF5A6F" stroke-width="8"/>
<rect y="352" width="724" height="8" fill="#C4C4C4"/>
<g clip-path="url(#clip0)">
<path d="M1360.12 43.7006C1360.12 35.0547 1357.57 26.6029 1352.8 19.414C1348.03 12.2251 1341.26 6.6221 1333.33 3.31343C1325.4 0.00476533 1316.67 -0.860933 1308.26 0.825812C1299.84 2.51256 1292.11 6.67599 1286.04 12.7896C1279.97 18.9032 1275.83 26.6925 1274.16 35.1723C1272.49 43.6521 1273.35 52.4417 1276.63 60.4296C1279.91 68.4174 1285.48 75.2447 1292.61 80.0482C1299.75 84.8516 1308.14 87.4154 1316.72 87.4154C1322.42 87.4173 1328.06 86.2878 1333.33 84.0916C1338.6 81.8954 1343.38 78.6755 1347.41 74.6158C1351.44 70.5561 1354.64 65.7363 1356.82 60.4318C1359 55.1272 1360.12 49.4419 1360.12 43.7006V43.7006Z" fill="#30AAE1"/>
<path d="M914.933 77.1479H1004.78V351.514H914.933V77.1479Z" fill="#4EC2BD"/>
<path d="M959.859 77.1479H1004.78V351.514H959.859V77.1479Z" fill="#1CA6DF"/>
<path d="M966.191 104.358H997.723V112.49H966.191V104.358Z" fill="#4DC2BD"/>
<path d="M966.191 119.915H997.723V128.047H966.191V119.915Z" fill="#4DC2BD"/>
<path d="M966.191 135.925H997.723V144.057H966.191V135.925Z" fill="#4DC2BD"/>
<path d="M837.718 104.019H916.337V360H837.718V104.019Z" fill="#FFE886"/>
<path d="M877.028 104.019H916.337V360H877.028V104.019Z" fill="#FEDE10"/>
<path d="M1145.18 105.433H1208.35V360H1145.18V105.433Z" fill="#4DC2BD"/>
<path d="M1323.47 217.16H1393.67V360H1323.47V217.16Z" fill="#FFE886"/>
<path d="M1323.57 217.16H1393.7L1393.67 217.457L1393.22 216.99L1368.75 181.478L1358.64 166.812L1332.28 205.167L1331.9 205.732L1324.05 216.806L1323.57 217.16Z" fill="#FFE886"/>
<path d="M1358.57 167.024V360H1393.67V218.022L1393.53 217.853L1393.05 217.16L1358.57 167.024Z" fill="#FEDE10"/>
<path d="M1329.6 236.125H1372.71V239.703H1329.6V236.125Z" fill="#FFE886"/>
<path d="M1329.6 253.888H1372.71V257.466H1329.6V253.888Z" fill="#FFE886"/>
<path d="M1329.6 263.477H1372.71V267.055H1329.6V263.477Z" fill="#FFE886"/>
<path d="M1329.6 244.568H1372.71V248.146H1329.6V244.568Z" fill="#FFE886"/>
<path d="M1383.84 245.445H1440V360H1383.84V245.445Z" fill="#4FB857"/>
<path d="M1163.43 197.36H1220.99V360H1163.43V197.36Z" fill="#19A7E0"/>
<path d="M768.926 169.075H862.988V360H768.926V169.075Z" fill="#F59AA8"/>
<path d="M969.686 214.331H1027.25V360H969.686V214.331Z" fill="#FFE886"/>
<path d="M986.533 197.36H1044.09V360H986.533V197.36Z" fill="#FFE886"/>
<path d="M1329.61 236.125H1358.57V239.703H1329.61V236.125Z" fill="#FEDD12"/>
<path d="M1329.61 253.888H1358.57V257.466H1329.61V253.888Z" fill="#FEDD12"/>
<path d="M1329.61 263.477H1358.57V267.055H1329.61V263.477Z" fill="#FEDD12"/>
<path d="M1329.61 244.568H1358.57V248.146H1329.61V244.568Z" fill="#FEDD12"/>
<path d="M1009 197.36H1044.09V360H1009V197.36Z" fill="#FEDE10"/>
<path d="M882.643 169.075H976.706V360H882.643V169.075Z" fill="#F59AA8"/>
<path d="M930.376 169.075H976.706V360H930.376V169.075Z" fill="#EF5A6F"/>
<path d="M816.659 169.075H862.988V360H816.659V169.075Z" fill="#EF5A6F"/>
<path d="M1044.09 137.961H1133.95V360H1044.09V137.961Z" fill="#78CCC9"/>
<path d="M1089.02 137.961H1133.95V360H1089.02V137.961Z" fill="#19A7E0"/>
<path d="M1268.72 245.445V360H1323.47V276.587L1316.95 267.281L1316.72 266.942L1316.69 266.899L1316.46 266.56L1309.69 256.957L1302.05 246.308L1301.33 245.445H1268.72Z" fill="#4DC2BD"/>
<path d="M1017.76 225.193H1024.86V232.349H1017.76V225.193Z" fill="#FFE886"/>
<path d="M1005.29 225.193H1012.39V232.349H1005.29V225.193Z" fill="#FEDD12"/>
<path d="M992.837 225.193H999.941V232.349H992.837V225.193Z" fill="#FEDD12"/>
<path d="M992.837 252.247H999.941V259.404H992.837V252.247Z" fill="#FEDD12"/>
<path d="M1005.35 239.364H1012.45V246.52H1005.35V239.364Z" fill="#FEDD12"/>
<path d="M992.893 239.364H999.997V246.52H992.893V239.364Z" fill="#FEDD12"/>
<path d="M1393.04 260.167H1400.14V267.323H1393.04V260.167Z" fill="#99D095"/>
<path d="M1393.04 273.815H1400.14V280.971H1393.04V273.815Z" fill="#99D095"/>
<path d="M1393.04 300.884H1400.14V308.04H1393.04V300.884Z" fill="#99D095"/>
<path d="M1393.04 314.22H1400.14V321.376H1393.04V314.22Z" fill="#99D095"/>
<path d="M1393.09 288H1400.2V295.156H1393.09V288Z" fill="#99D095"/>
<path d="M1393.04 327.543H1400.14V334.699H1393.04V327.543Z" fill="#99D095"/>
<path d="M1275.43 259.899H1282.54V267.055H1275.43V259.899Z" fill="#19A7E0"/>
<path d="M1275.43 273.815H1282.54V280.971H1275.43V273.815Z" fill="#19A7E0"/>
<path d="M1288.87 273.815H1295.97V280.971H1288.87V273.815Z" fill="#19A7E0"/>
<path d="M1275.43 288H1282.54V295.156H1275.43V288Z" fill="#19A7E0"/>
<path d="M1288.87 288H1295.97V295.156H1288.87V288Z" fill="#19A7E0"/>
<path d="M1288.87 302.185H1295.97V309.341H1288.87V302.185Z" fill="#19A7E0"/>
<path d="M1208.35 50.277H1268.72V360H1208.35V50.277Z" fill="#F59AA8"/>
<path d="M1239.24 50.277H1268.72V360H1239.24V50.277Z" fill="#EF5B6F"/>
<path d="M1215.37 36.1343H1263.11V123.818H1215.37V36.1343Z" fill="#F59AA8"/>
<path d="M1239.24 36.1343H1263.11V123.818H1239.24V36.1343Z" fill="#EF5B6F"/>
<path d="M1208.35 50.277H1268.72V61.5911H1208.35V50.277Z" fill="#EF5A6F"/>
<path d="M1060.94 282.216H1195.72V360H1060.94V282.216Z" fill="#99D095"/>
<path d="M724 283.63H768.925V360H724V283.63Z" fill="#4FB857"/>
<path d="M1128.33 282.216H1195.72V360H1128.33V282.216Z" fill="#4FB857"/>
<path d="M1169 298.607H1176.1V305.763H1169V298.607Z" fill="#99D095"/>
<path d="M1139.59 298.607H1146.69V305.763H1139.59V298.607Z" fill="#99D095"/>
<path d="M1110.18 298.607H1117.28V305.763H1110.18V298.607Z" fill="#4FB858"/>
<path d="M1080.75 298.607H1087.85V305.763H1080.75V298.607Z" fill="#4FB858"/>
<path d="M1169 315.267H1176.1V322.423H1169V315.267Z" fill="#99D095"/>
<path d="M1139.59 315.267H1146.69V322.423H1139.59V315.267Z" fill="#99D095"/>
<path d="M1110.18 315.267H1117.28V322.423H1110.18V315.267Z" fill="#4FB858"/>
<path d="M1080.75 315.267H1087.85V322.423H1080.75V315.267Z" fill="#4FB858"/>
<path d="M1169 332.012H1176.1V339.168H1169V332.012Z" fill="#99D095"/>
<path d="M1139.59 332.012H1146.69V339.168H1139.59V332.012Z" fill="#99D095"/>
<path d="M1110.18 332.012H1117.28V339.168H1110.18V332.012Z" fill="#4FB858"/>
<path d="M1080.75 332.012H1087.85V339.168H1080.75V332.012Z" fill="#4FB858"/>
<path d="M768.968 182.92H828.143V191.052H768.968V182.92Z" fill="#F59AA8"/>
<path d="M727.369 304.787H756.95V312.919H727.369V304.787Z" fill="#99D095"/>
<path d="M727.369 318.845H756.95V326.977H727.369V318.845Z" fill="#99D095"/>
<path d="M727.369 333.652H756.95V341.784H727.369V333.652Z" fill="#99D095"/>
<path d="M1161.42 130.084H1208.51V138.216H1161.42V130.084Z" fill="#19A7E0"/>
<path d="M1161.42 154.466H1208.51V162.598H1161.42V154.466Z" fill="#19A7E0"/>
<path d="M1161.42 178.862H1208.51V186.993H1161.42V178.862Z" fill="#19A7E0"/>
<path d="M1059.13 158.722H1118.31V166.854H1059.13V158.722Z" fill="#19A7E0"/>
<path d="M1059.13 178.862H1118.31V186.993H1059.13V178.862Z" fill="#19A7E0"/>
<path d="M1059.13 199.001H1118.31V207.133H1059.13V199.001Z" fill="#19A7E0"/>
<path d="M1059.13 219.14H1118.31V227.272H1059.13V219.14Z" fill="#19A7E0"/>
<path d="M1059.13 239.279H1118.31V247.411H1059.13V239.279Z" fill="#19A7E0"/>
<path d="M1059.13 259.418H1118.31V267.55H1059.13V259.418Z" fill="#19A7E0"/>
<path d="M795.6 249.688H930.376V360H795.6V249.688Z" fill="#4DC2BD"/>
<path d="M956.56 192.226H963.664V199.382H956.56V192.226Z" fill="#F59AA8"/>
<path d="M936.357 192.226H943.461V199.382H936.357V192.226Z" fill="#F59AA8"/>
<path d="M956.56 211.078H963.664V218.235H956.56V211.078Z" fill="#F59AA8"/>
<path d="M936.357 211.078H943.461V218.235H936.357V211.078Z" fill="#F59AA8"/>
<path d="M956.56 229.916H963.664V237.073H956.56V229.916Z" fill="#F59AA8"/>
<path d="M936.357 229.916H943.461V237.073H936.357V229.916Z" fill="#F59AA8"/>
<path d="M956.56 248.754H963.664V255.91H956.56V248.754Z" fill="#F59AA8"/>
<path d="M936.357 248.754H943.461V255.91H936.357V248.754Z" fill="#F59AA8"/>
<path d="M956.56 267.592H963.664V274.748H956.56V267.592Z" fill="#F59AA8"/>
<path d="M936.357 267.592H943.461V274.748H936.357V267.592Z" fill="#F59AA8"/>
<path d="M956.56 286.43H963.664V293.586H956.56V286.43Z" fill="#F59AA8"/>
<path d="M936.357 286.43H943.461V293.586H936.357V286.43Z" fill="#F59AA8"/>
<path d="M956.56 305.282H963.664V312.438H956.56V305.282Z" fill="#F59AA8"/>
<path d="M936.357 305.282H943.461V312.438H936.357V305.282Z" fill="#F59AA8"/>
<path d="M956.56 324.12H963.664V331.276H956.56V324.12Z" fill="#F59AA8"/>
<path d="M936.357 324.12H943.461V331.276H936.357V324.12Z" fill="#F59AA8"/>
<path d="M956.56 342.958H963.664V350.114H956.56V342.958Z" fill="#F59AA8"/>
<path d="M936.357 342.958H943.461V350.114H936.357V342.958Z" fill="#F59AA8"/>
<path d="M916.155 192.226H923.259V199.382H916.155V192.226Z" fill="#EF5A6F"/>
<path d="M895.938 192.226H903.042V199.382H895.938V192.226Z" fill="#EF5A6F"/>
<path d="M916.155 211.078H923.259V218.235H916.155V211.078Z" fill="#EF5A6F"/>
<path d="M895.938 211.078H903.042V218.235H895.938V211.078Z" fill="#EF5A6F"/>
<path d="M916.155 229.916H923.259V237.073H916.155V229.916Z" fill="#EF5A6F"/>
<path d="M895.938 229.916H903.042V237.073H895.938V229.916Z" fill="#EF5A6F"/>
<path d="M916.155 248.754H923.259V255.91H916.155V248.754Z" fill="#EF5A6F"/>
<path d="M895.938 248.754H903.042V255.91H895.938V248.754Z" fill="#EF5A6F"/>
<path d="M916.155 267.592H923.259V274.748H916.155V267.592Z" fill="#EF5A6F"/>
<path d="M895.938 267.592H903.042V274.748H895.938V267.592Z" fill="#EF5A6F"/>
<path d="M916.155 286.43H923.259V293.586H916.155V286.43Z" fill="#EF5A6F"/>
<path d="M895.938 286.43H903.042V293.586H895.938V286.43Z" fill="#EF5A6F"/>
<path d="M916.155 305.282H923.259V312.438H916.155V305.282Z" fill="#EF5A6F"/>
<path d="M895.938 305.282H903.042V312.438H895.938V305.282Z" fill="#EF5A6F"/>
<path d="M916.155 324.12H923.259V331.276H916.155V324.12Z" fill="#EF5A6F"/>
<path d="M895.938 324.12H903.042V331.276H895.938V324.12Z" fill="#EF5A6F"/>
<path d="M916.155 342.958H923.259V350.114H916.155V342.958Z" fill="#EF5A6F"/>
<path d="M895.938 342.958H903.042V350.114H895.938V342.958Z" fill="#EF5A6F"/>
<path d="M862.988 249.688H930.376V360H862.988V249.688Z" fill="#19A7E0"/>
<path d="M900.543 275.569H909.542V291.027H900.543V275.569Z" fill="#4DC2BD"/>
<path d="M837.254 275.569H846.253V291.027H837.254V275.569Z" fill="#19A7E0"/>
<path d="M816.167 275.569H825.167V291.027H816.167V275.569Z" fill="#19A7E0"/>
<path d="M879.456 275.569H888.456V291.027H879.456V275.569Z" fill="#4DC2BD"/>
<path d="M858.355 275.569H867.354V291.027H858.355V275.569Z" fill="#4DC2BD"/>
<path d="M901.049 298.918H910.048V314.376H901.049V298.918Z" fill="#4DC2BD"/>
<path d="M837.76 298.918H846.759V314.376H837.76V298.918Z" fill="#19A7E0"/>
<path d="M816.659 298.918H825.658V314.376H816.659V298.918Z" fill="#19A7E0"/>
<path d="M879.948 298.918H888.947V314.376H879.948V298.918Z" fill="#4DC2BD"/>
<path d="M858.861 298.918H867.86V314.376H858.861V298.918Z" fill="#4DC2BD"/>
<path d="M900.796 322.253H909.795V337.711H900.796V322.253Z" fill="#4DC2BD"/>
<path d="M837.507 322.253H846.506V337.711H837.507V322.253Z" fill="#19A7E0"/>
<path d="M816.406 322.253H825.405V337.711H816.406V322.253Z" fill="#19A7E0"/>
<path d="M879.695 322.253H888.694V337.711H879.695V322.253Z" fill="#4DC2BD"/>
<path d="M858.608 322.253H867.607V337.711H858.608V322.253Z" fill="#4DC2BD"/>
<path d="M1254.64 74.7154H1261.74V81.8715H1254.64V74.7154Z" fill="#F59AA8"/>
<path d="M1254.64 87.9104H1261.74V95.0666H1254.64V87.9104Z" fill="#F59AA8"/>
<path d="M1254.64 100.653H1261.74V107.809H1254.64V100.653Z" fill="#F59AA8"/>
<path d="M1254.64 114.159H1261.74V121.315H1254.64V114.159Z" fill="#F59AA8"/>
<path d="M1254.64 126.506H1261.74V133.662H1254.64V126.506Z" fill="#F59AA8"/>
<path d="M1254.64 138.216H1261.74V145.372H1254.64V138.216Z" fill="#F59AA8"/>
<path d="M1254.64 150.887H1261.74V158.044H1254.64V150.887Z" fill="#F59AA8"/>
<path d="M1301.01 96.9476H1331.9V360H1301.01V96.9476Z" fill="#F59AA8"/>
<path d="M1316.45 99.7761H1331.9V360H1316.45V99.7761Z" fill="#EF5B6F"/>
<path d="M1301.01 94.119H1331.9V101.19H1301.01V94.119Z" fill="#EF5A6F"/>
<path d="M1301.01 108.262H1331.9V115.333H1301.01V108.262Z" fill="#EF5A6F"/>
<path d="M1273.34 43.7007C1273.34 52.3478 1275.88 60.8016 1280.65 67.9926C1285.42 75.1836 1292.19 80.7889 1300.12 84.0993C1308.05 87.4097 1316.78 88.2766 1325.2 86.5903C1333.62 84.904 1341.35 80.7403 1347.42 74.6258C1353.49 68.5113 1357.62 60.7208 1359.3 52.2397C1360.97 43.7585 1360.11 34.9677 1356.82 26.9793C1353.54 18.9909 1347.97 12.1637 1340.84 7.36138C1333.7 2.55901 1325.31 -0.00279479 1316.72 2.28802e-06C1305.22 0.00375095 1294.19 4.60912 1286.05 12.8038C1277.92 20.9984 1273.34 32.1117 1273.34 43.7007V43.7007Z" fill="#EF5B6F"/>
<path d="M1317.02 77.4308C1298.52 77.4308 1283.53 62.3293 1283.53 43.7007C1283.53 25.072 1298.52 9.97055 1317.02 9.97055C1335.51 9.97055 1350.5 25.072 1350.5 43.7007C1350.5 62.3293 1335.51 77.4308 1317.02 77.4308Z" fill="#EF5A6F"/>
<path d="M1286.02 43.7007C1286.51 60.7001 1299.78 74.9558 1317.02 74.9558C1325.22 74.8674 1333.05 71.5452 1338.85 65.702C1344.64 59.8587 1347.93 51.9601 1348.01 43.7007C1347.94 35.4428 1344.65 27.545 1338.85 21.7055C1333.05 15.8661 1325.21 12.5512 1317.02 12.4738C1299.78 12.4738 1286.51 26.7013 1286.02 43.7007C1285.92 46.9252 1280.95 46.9393 1281.03 43.7007C1281.47 28.7236 1290.12 15.3165 1304.18 9.89985C1311.26 7.22812 1318.99 6.84962 1326.29 8.81721C1333.59 10.7848 1340.09 15.0002 1344.9 20.8745C1365.51 46.4302 1342.74 85.2375 1310.54 79.34C1293.32 76.2004 1281.54 60.9546 1281.06 43.7007C1280.95 40.4761 1285.92 40.4761 1286.02 43.7007Z" fill="#F59AA8"/>
<path d="M1342.16 21.624L1294.81 69.2988C1294.34 69.7676 1293.71 70.0303 1293.05 70.029C1292.39 70.0276 1291.76 69.7624 1291.29 69.2917C1290.82 68.821 1290.56 68.1833 1290.56 67.5189C1290.57 66.8545 1290.83 66.2178 1291.3 65.749L1338.65 18.0742C1339.12 17.6054 1339.75 17.3427 1340.41 17.3441C1341.07 17.3454 1341.7 17.6106 1342.17 18.0813C1342.63 18.552 1342.89 19.1898 1342.89 19.8541C1342.89 20.5185 1342.63 21.1552 1342.16 21.624V21.624Z" fill="#F59AA8"/>
<path d="M1327.91 13.0536L1286.21 55.0572C1285.98 55.2893 1285.71 55.4733 1285.41 55.5986C1285.1 55.7239 1284.78 55.788 1284.45 55.7874C1284.13 55.7867 1283.8 55.7213 1283.5 55.5948C1283.2 55.4683 1282.93 55.2832 1282.7 55.0501C1282.47 54.817 1282.28 54.5405 1282.16 54.2363C1282.04 53.9321 1281.97 53.6062 1281.97 53.2773C1281.97 52.9483 1282.04 52.6227 1282.16 52.319C1282.29 52.0153 1282.47 51.7395 1282.7 51.5074L1324.39 9.51799C1324.85 9.04726 1325.48 8.78206 1326.14 8.78074C1326.8 8.77941 1327.44 9.04207 1327.9 9.51092C1328.37 9.97978 1328.63 10.6164 1328.64 11.2808C1328.64 11.9452 1328.38 12.5829 1327.91 13.0536V13.0536Z" fill="#F59AA8"/>
<path d="M1350.15 35.2434L1308.45 77.2328C1307.97 77.646 1307.36 77.8621 1306.73 77.838C1306.1 77.8138 1305.5 77.5511 1305.06 77.1025C1304.61 76.6538 1304.35 76.0523 1304.33 75.4183C1304.3 74.7843 1304.52 74.1645 1304.93 73.683L1346.6 31.6936C1347.06 31.2191 1347.7 30.9511 1348.36 30.9484C1349.03 30.9458 1349.66 31.2087 1350.13 31.6795C1350.61 32.1502 1350.87 32.7901 1350.87 33.4585C1350.88 34.1269 1350.62 34.7689 1350.15 35.2434V35.2434Z" fill="#F59AA8"/>
<path d="M803.813 210.272H862.988V218.404H803.813V210.272Z" fill="#EF5A6F"/>
<path d="M1089.02 158.722H1118.31V166.854H1089.02V158.722Z" fill="#4DC2BD"/>
<path d="M1089.02 178.862H1118.31V186.993H1089.02V178.862Z" fill="#4DC2BD"/>
<path d="M1089.02 199.001H1118.31V207.133H1089.02V199.001Z" fill="#4DC2BD"/>
<path d="M1089.02 219.14H1118.31V227.272H1089.02V219.14Z" fill="#4DC2BD"/>
<path d="M1089.02 239.279H1118.31V247.411H1089.02V239.279Z" fill="#4DC2BD"/>
<path d="M1089.02 259.418H1118.31V267.55H1089.02V259.418Z" fill="#4DC2BD"/>
<path d="M768.968 182.92H816.659V191.052H768.968V182.92Z" fill="#EF5A6F"/>
<path d="M816.659 210.272H862.988V218.404H816.659V210.272Z" fill="#F59AA8"/>
<path d="M858.355 275.569H862.988V291.027H858.355V275.569Z" fill="#19A7E0"/>
<path d="M858.861 298.918H862.988V314.376H858.861V298.918Z" fill="#19A7E0"/>
<path d="M858.608 322.253H862.988V337.711H858.608V322.253Z" fill="#19A7E0"/>
<path d="M1239.24 50.277H1268.72V61.5911H1239.24V50.277Z" fill="#F59AA8"/>
<path d="M1316.45 94.119H1331.9V101.19H1316.45V94.119Z" fill="#F59AA8"/>
<path d="M1316.45 108.262H1331.9V115.333H1316.45V108.262Z" fill="#F59AA8"/>
<path d="M1008.84 225.193H1012.42V232.349H1008.84V225.193Z" fill="#FFE886"/>
<path d="M1008.87 239.364H1012.45V246.52H1008.87V239.364Z" fill="#FFE886"/>
</g>
<defs>
<filter id="filter0_d" x="590" y="217" width="30" height="71.08" filterUnits="userSpaceOnUse" color-interpolation-filters="sRGB">
<feFlood flood-opacity="0" result="BackgroundImageFix"/>
<feColorMatrix in="SourceAlpha" type="matrix" values="0 0 0 0 0 0 0 0 0 0 0 0 0 0 0 0 0 0 127 0"/>
<feOffset dy="4"/>
<feGaussianBlur stdDeviation="0.5"/>
<feColorMatrix type="matrix" values="0 0 0 0 0 0 0 0 0 0 0 0 0 0 0 0 0 0 0.25 0"/>
<feBlend mode="normal" in2="BackgroundImageFix" result="effect1_dropShadow"/>
<feBlend mode="normal" in="SourceGraphic" in2="effect1_dropShadow" result="shape"/>
</filter>
<filter id="filter1_d" x="618" y="217" width="30" height="71.08" filterUnits="userSpaceOnUse" color-interpolation-filters="sRGB">
<feFlood flood-opacity="0" result="BackgroundImageFix"/>
<feColorMatrix in="SourceAlpha" type="matrix" values="0 0 0 0 0 0 0 0 0 0 0 0 0 0 0 0 0 0 127 0"/>
<feOffset dy="4"/>
<feGaussianBlur stdDeviation="0.5"/>
<feColorMatrix type="matrix" values="0 0 0 0 0 0 0 0 0 0 0 0 0 0 0 0 0 0 0.25 0"/>
<feBlend mode="normal" in2="BackgroundImageFix" result="effect1_dropShadow"/>
<feBlend mode="normal" in="SourceGraphic" in2="effect1_dropShadow" result="shape"/>
</filter>
<clipPath id="clip0">
<rect width="716" height="360" transform="matrix(-1 0 0 1 1440 0)" fill="white"/>
</clipPath>
</defs>
</svg>
