<svg width="156" height="63" viewBox="0 0 156 63" fill="none" xmlns="http://www.w3.org/2000/svg">
<g clip-path="url(#clip0)">
<path d="M109.537 28.8983L98.473 23.5034L99.0206 17.9688L109.54 26.0004L109.537 28.8983Z" fill="#FF9CA8"/>
<path d="M117.235 31.1917L109.46 25.9435L108.305 28.3307L116.709 32.2705" fill="#A57468"/>
<path d="M102.622 31.2063L107.757 41.78L101.807 59.7531L99.508 60.0031L102.082 43.4528L95.1512 31.9129L102.622 31.2063Z" fill="#1ED6C9"/>
<path d="M99.6074 34.3342L99.1444 45.3664L89.4587 59.7354L87.8341 58.528L93.8913 45.7661L93.6225 32.1025L99.6074 34.3342Z" fill="#1ED6C9"/>
<path d="M96.7263 15.7448L93.0431 34.5332L105.327 36.2578L101.462 15.2213L96.7263 15.7448Z" fill="#EF596F"/>
<path d="M100.558 17.0004C98.2356 17.3958 96.0332 15.8409 95.6393 13.5272C95.2453 11.2136 96.8091 9.01739 99.132 8.62191C101.455 8.22643 103.657 9.7814 104.051 12.095C104.445 14.4087 102.881 16.6049 100.558 17.0004Z" fill="#A57468"/>
<path d="M99.1025 18.4496L106.756 29.2305L105.89 32.0633L96.921 23.5556L99.1025 18.4496Z" fill="#FF9CA8"/>
<path d="M115.217 33.0899L105.786 31.869L106.663 29.1049L115.57 31.8285" fill="#A57468"/>
<path d="M100.137 10.3588C99.1471 10.5273 98.2083 9.86455 98.0405 8.87841C97.8726 7.89227 98.5391 6.95619 99.5291 6.78762C100.519 6.61906 101.458 7.28183 101.626 8.26798C101.794 9.25412 101.127 10.1902 100.137 10.3588Z" fill="#FFDD17"/>
<path d="M97.5066 11.16C96.5165 11.3285 95.5778 10.6658 95.4099 9.67962C95.242 8.69348 95.9085 7.7574 96.8986 7.58883C97.8887 7.42027 98.8274 8.08304 98.9953 9.06919C99.1632 10.0553 98.4967 10.9914 97.5066 11.16Z" fill="#FFDD17"/>
<path d="M95.9477 12.8387C94.9576 13.0073 94.0189 12.3445 93.851 11.3583C93.6831 10.3722 94.3496 9.43613 95.3397 9.26756C96.3298 9.09899 97.2685 9.76177 97.4364 10.7479C97.6043 11.7341 96.9378 12.6701 95.9477 12.8387Z" fill="#FFDD17"/>
<path d="M102.484 10.8072C101.494 10.9758 100.555 10.313 100.387 9.32687C100.219 8.34072 100.886 7.40465 101.876 7.23608C102.866 7.06751 103.805 7.73029 103.973 8.71643C104.14 9.70258 103.474 10.6387 102.484 10.8072Z" fill="#FFDD17"/>
<path d="M96.0644 37.6935C93.4369 38.1408 90.9457 36.3819 90.5001 33.7648C90.0545 31.1478 91.8233 28.6636 94.4508 28.2162C97.0784 27.7689 99.5696 29.5278 100.015 32.1448C100.461 34.7619 98.6919 37.2461 96.0644 37.6935Z" fill="#FCD900"/>
</g>
<path d="M69.8472 46.5364L68.4151 62H66.8585L65.3642 46.9045L69.8472 46.5364Z" fill="#D39E7A"/>
<path d="M62.0642 46.1682L59.0755 61.325L57.1453 61.0795L57.7057 45.9227L62.0642 46.1682Z" fill="#D39E7A"/>
<path d="M57.1453 47.2114L62.9359 48.4386L63.3095 38.5591L57.5812 36.4114L57.1453 47.2114Z" fill="#1ED6C9"/>
<path d="M79 27.2068L78.751 28.4341L71.7151 28.4955H71.1548L69.5359 28.1273L69.9717 25.6727L71.0302 25.8568L79 27.2068Z" fill="#D39E7A"/>
<path d="M61.566 38.3136L64.7415 47.6409L70.2208 46.8432L67.1698 38.3136H61.566Z" fill="#1ED6C9"/>
<path d="M71.7774 28.6182L71.1547 28.4955L69.5359 28.1273L59.8227 26.1636L59.0132 20.825L71.0302 25.8568L71.7151 28.4955L71.7774 28.6182Z" fill="#1ED6C9"/>
<path d="M57.5189 15.8546L56.2114 38.0682L67.917 39.2955L63.8699 15.1182L57.5189 15.8546Z" fill="#FF9CA8"/>
<path d="M60.6321 17.2659C62.9361 17.2659 64.8038 15.4252 64.8038 13.1545C64.8038 10.8839 62.9361 9.04318 60.6321 9.04318C58.3281 9.04318 56.4604 10.8839 56.4604 13.1545C56.4604 15.4252 58.3281 17.2659 60.6321 17.2659Z" fill="#D39E7A"/>
<path d="M60.7566 22.1136L68.5396 32.4841L67.7925 35.1841L58.7642 27.1455L60.7566 22.1136Z" fill="#1ED6C9"/>
<path d="M68.5397 32.4841L77.3812 34.8773L77.0076 36.1045L67.7925 35.1841L68.5397 32.4841Z" fill="#D39E7A"/>
<path d="M64.8038 12.6636C64.8038 12.6636 66.4849 8.06136 63.434 8C63.3717 8.06136 62.7491 8.18409 62.7491 8.675C62.7491 8.675 58.7019 7.63182 56.834 9.71818C56.7717 9.71818 55.0283 11.1909 55.9623 14.0136C55.9623 14.075 57.2076 13.8909 57.2076 13.8909C57.2076 13.8909 55.9623 12.2341 58.7019 11.0068C58.7642 10.9455 62.7491 10.2091 62.9359 11.6818C63.1227 11.8045 64.8038 12.6636 64.8038 12.6636Z" fill="#38C656"/>
<path d="M60.0094 31.1341H46V35.4909H60.0094V31.1341Z" fill="#38C656"/>
<g clip-path="url(#clip1)">
<path d="M25.8321 34.5926L26.9924 44.9562L21.3741 62L19.7252 61.563L21.0076 44.644L19.7252 32.8445L25.8321 34.5926Z" fill="#1ED6C9"/>
<path d="M17.832 34.0931L19.9694 45.4557L16.8549 61.6254H14.1068L13.6793 44.7689L9.46561 34.218L17.832 34.0931Z" fill="#1ED6C9"/>
<path d="M25.0992 22.9803L24.7939 25.2903L23.6947 24.8533L22.4122 23.9168L15.8168 19.2344L17.0382 14.4272L18.9313 16.425L24.9771 22.9179L25.0992 22.9803Z" fill="#18B8EF"/>
<path d="M32 27.3505L31.4504 28.2246L24.7939 25.2903L23.6947 24.8532L24.916 22.8554L24.9771 22.9179L32 27.3505Z" fill="#E7B9A6"/>
<path d="M13.4962 13.6156L8.61066 35.529L27.603 35.2169L17.3435 12.9913L13.4962 13.6156Z" fill="#38C656"/>
<path d="M15.3893 14.115C13.3319 14.115 11.6641 12.41 11.6641 10.3067C11.6641 8.2034 13.3319 6.49835 15.3893 6.49835C17.4467 6.49835 19.1145 8.2034 19.1145 10.3067C19.1145 12.41 17.4467 14.115 15.3893 14.115Z" fill="#E7B9A6"/>
<path d="M16.0611 17.9233L22.8397 27.6002L22.1069 30.035L14.168 22.4808L16.0611 17.9233Z" fill="#18B8EF"/>
<path d="M22.8397 27.6002L30.6565 29.9726L30.2901 31.0964L22.1069 30.035L22.8397 27.6002Z" fill="#E7B9A6"/>
<path d="M19.6031 8.99562L10.8092 10.1194C10.5039 7.62212 12.2138 5.37459 14.6565 5.06243C17.0993 4.75027 19.2977 6.49836 19.6031 8.99562Z" fill="#FCD900"/>
<path d="M13.8015 32.6572C14.7786 32.6572 16.1222 32.2826 17.4046 30.597L14.9619 28.6616C14.6565 29.0362 14.229 29.5356 13.7405 29.5356C13.1909 29.5356 12.5191 28.9737 12.2748 28.6616L9.89315 30.597C10.1374 30.8467 11.6031 32.6572 13.8015 32.6572Z" fill="#FCD900"/>
<path d="M3.84739 32.6572C4.82449 32.6572 6.168 32.2826 7.45044 30.597L5.00769 28.6616C4.70235 29.0362 4.27487 29.5356 3.78632 29.5356C3.2367 29.5356 2.56494 28.9737 2.32067 28.6616L-0.0610104 30.597C0.183264 30.8467 1.64891 32.6572 3.84739 32.6572Z" fill="#FCD900"/>
<path d="M10.0153 30.7218L12.397 28.7864C12.2138 28.5991 10.7481 26.7262 8.54965 26.7262C7.63362 26.7262 6.22904 27.1008 4.9466 28.7864L7.38934 30.7218C7.69469 30.3472 8.12217 29.8478 8.61072 29.8478C9.2214 29.8478 9.89316 30.5345 10.0153 30.7218Z" fill="#FCD900"/>
</g>
<path d="M141.892 11.6757L145.245 23.1017L143.727 25.1621L138.539 15.3595L141.892 11.6757Z" fill="#5B8D88"/>
<path d="M145.435 22.9768L149.673 30.1571L148.598 30.719L143.157 24.2256L145.435 22.9768Z" fill="#A57468"/>
<path d="M141.323 37.6496L142.018 46.7654L137.02 62L135.629 61.6254L137.147 46.6405L136.388 36.2759L141.323 37.6496Z" fill="#A57468"/>
<path d="M147.269 38.8358L149.863 46.8278L148.598 61.7502H147.269L145.435 47.9517L142.588 38.8358H147.269Z" fill="#A57468"/>
<path d="M152.9 43.144H130.631L137.78 20.4794L138.033 10.864L141.575 9.98993L146.573 28.4713L152.9 43.144Z" fill="#1ED6C9"/>
<path d="M139.678 11.2387C137.546 11.2387 135.818 9.53348 135.818 7.43001C135.818 5.32655 137.546 3.62135 139.678 3.62135C141.809 3.62135 143.537 5.32655 143.537 7.43001C143.537 9.53348 141.809 11.2387 139.678 11.2387Z" fill="#A57468"/>
<path d="M140.943 13.2366L147.902 22.9144L147.143 25.4119L138.982 17.857L140.943 13.2366Z" fill="#38C656"/>
<path d="M147.902 22.9144L156 25.287L155.684 26.4109L147.143 25.4119L147.902 22.9144Z" fill="#A57468"/>
<path d="M139.108 7.11782C137.117 7.11782 135.502 5.52445 135.502 3.55891C135.502 1.59338 137.117 0 139.108 0C141.1 0 142.714 1.59338 142.714 3.55891C142.714 5.52445 141.1 7.11782 139.108 7.11782Z" fill="#FF9CA8"/>
<path d="M142.714 6.55588C141.491 6.55588 140.5 5.57749 140.5 4.37058C140.5 3.16368 141.491 2.18529 142.714 2.18529C143.937 2.18529 144.929 3.16368 144.929 4.37058C144.929 5.57749 143.937 6.55588 142.714 6.55588Z" fill="#FF9CA8"/>
<path d="M135.629 8.42901C134.161 8.42901 132.971 7.25494 132.971 5.80665C132.971 4.35836 134.161 3.1843 135.629 3.1843C137.096 3.1843 138.286 4.35836 138.286 5.80665C138.286 7.25494 137.096 8.42901 135.629 8.42901Z" fill="#FF9CA8"/>
<path d="M134.49 11.426C133.022 11.426 131.833 10.2519 131.833 8.80362C131.833 7.35533 133.022 6.18126 134.49 6.18126C135.957 6.18126 137.147 7.35533 137.147 8.80362C137.147 10.2519 135.957 11.426 134.49 11.426Z" fill="#FF9CA8"/>
<path d="M136.071 13.6737C134.849 13.6737 133.857 12.6953 133.857 11.4884C133.857 10.2815 134.849 9.30312 136.071 9.30312C137.294 9.30312 138.286 10.2815 138.286 11.4884C138.286 12.6953 137.294 13.6737 136.071 13.6737Z" fill="#FF9CA8"/>
<path d="M125 29.4703H139.235V33.9033H125V29.4703Z" fill="#FF9CA8"/>
<defs>
<clipPath id="clip0">
<rect width="33.5721" height="52.5963" transform="matrix(-0.985814 0.167841 0.167841 0.985814 112.699 4.54546)" fill="white"/>
</clipPath>
<clipPath id="clip1">
<rect width="32" height="57" transform="matrix(-1 0 0 1 32 5)" fill="white"/>
</clipPath>
</defs>
</svg>
