<svg width="716" height="360" viewBox="0 0 716 360" fill="none" xmlns="http://www.w3.org/2000/svg">
<g clip-path="url(#clip0)">
<path d="M636.117 43.7006C636.117 35.0547 633.572 26.6028 628.803 19.414C624.035 12.2251 617.258 6.62209 609.328 3.31342C601.399 0.00475007 592.673 -0.860948 584.256 0.825797C575.838 2.51254 568.105 6.67597 562.037 12.7896C555.968 18.9032 551.835 26.6924 550.16 35.1723C548.486 43.6521 549.345 52.4417 552.63 60.4295C555.914 68.4174 561.476 75.2447 568.613 80.0481C575.749 84.8516 584.139 87.4154 592.722 87.4154C598.421 87.4173 604.065 86.2878 609.33 84.0916C614.596 81.8954 619.381 78.6755 623.411 74.6158C627.441 70.5561 630.637 65.7363 632.817 60.4317C634.997 55.1272 636.119 49.4419 636.117 43.7006V43.7006Z" fill="#30AAE1"/>
<path d="M190.933 77.1479H280.784V351.514H190.933V77.1479Z" fill="#4EC2BD"/>
<path d="M235.859 77.1479H280.784V351.514H235.859V77.1479Z" fill="#1CA6DF"/>
<path d="M242.191 104.358H273.723V112.49H242.191V104.358Z" fill="#4DC2BD"/>
<path d="M242.191 119.915H273.723V128.047H242.191V119.915Z" fill="#4DC2BD"/>
<path d="M242.191 135.925H273.723V144.057H242.191V135.925Z" fill="#4DC2BD"/>
<path d="M113.718 104.019H192.337V360H113.718V104.019Z" fill="#FFE886"/>
<path d="M153.027 104.019H192.337V360H153.027V104.019Z" fill="#FEDE10"/>
<path d="M421.176 105.433H484.353V360H421.176V105.433Z" fill="#4DC2BD"/>
<path d="M599.474 217.16H669.671V360H599.474V217.16Z" fill="#FFE886"/>
<path d="M599.573 217.16H669.699L669.671 217.457L669.221 216.99L644.751 181.478L634.643 166.812L608.277 205.167L607.898 205.732L600.05 216.806L599.573 217.16Z" fill="#FFE886"/>
<path d="M634.572 167.024V360H669.671V218.022L669.53 217.853L669.053 217.16L634.572 167.024Z" fill="#FEDE10"/>
<path d="M605.596 236.125H648.71V239.703H605.596V236.125Z" fill="#FFE886"/>
<path d="M605.596 253.888H648.71V257.466H605.596V253.888Z" fill="#FFE886"/>
<path d="M605.596 263.477H648.71V267.055H605.596V263.477Z" fill="#FFE886"/>
<path d="M605.596 244.568H648.71V248.146H605.596V244.568Z" fill="#FFE886"/>
<path d="M659.843 245.445H716V360H659.843V245.445Z" fill="#4FB857"/>
<path d="M439.428 197.36H496.988V360H439.428V197.36Z" fill="#19A7E0"/>
<path d="M44.9255 169.075H138.988V360H44.9255V169.075Z" fill="#F59AA8"/>
<path d="M245.686 214.331H303.247V360H245.686V214.331Z" fill="#FFE886"/>
<path d="M262.533 197.36H320.094V360H262.533V197.36Z" fill="#FFE886"/>
<path d="M605.61 236.125H634.573V239.703H605.61V236.125Z" fill="#FEDD12"/>
<path d="M605.61 253.888H634.573V257.466H605.61V253.888Z" fill="#FEDD12"/>
<path d="M605.61 263.477H634.573V267.055H605.61V263.477Z" fill="#FEDD12"/>
<path d="M605.61 244.568H634.573V248.146H605.61V244.568Z" fill="#FEDD12"/>
<path d="M284.996 197.36H320.094V360H284.996V197.36Z" fill="#FEDE10"/>
<path d="M158.643 169.075H252.706V360H158.643V169.075Z" fill="#F59AA8"/>
<path d="M206.376 169.075H252.706V360H206.376V169.075Z" fill="#EF5A6F"/>
<path d="M92.6588 169.075H138.988V360H92.6588V169.075Z" fill="#EF5A6F"/>
<path d="M320.094 137.961H409.945V360H320.094V137.961Z" fill="#78CCC9"/>
<path d="M365.02 137.961H409.945V360H365.02V137.961Z" fill="#19A7E0"/>
<path d="M544.722 245.445V360H599.475V276.587L592.946 267.281L592.722 266.942L592.694 266.899L592.455 266.56L585.688 256.957L578.051 246.308L577.335 245.445H544.722Z" fill="#4DC2BD"/>
<path d="M293.757 225.193H300.86V232.349H293.757V225.193Z" fill="#FFE886"/>
<path d="M281.29 225.193H288.394V232.349H281.29V225.193Z" fill="#FEDD12"/>
<path d="M268.837 225.193H275.941V232.349H268.837V225.193Z" fill="#FEDD12"/>
<path d="M268.837 252.247H275.941V259.404H268.837V252.247Z" fill="#FEDD12"/>
<path d="M281.346 239.364H288.45V246.52H281.346V239.364Z" fill="#FEDD12"/>
<path d="M268.893 239.364H275.997V246.52H268.893V239.364Z" fill="#FEDD12"/>
<path d="M669.039 260.167H676.143V267.323H669.039V260.167Z" fill="#99D095"/>
<path d="M669.039 273.815H676.143V280.971H669.039V273.815Z" fill="#99D095"/>
<path d="M669.039 300.884H676.143V308.04H669.039V300.884Z" fill="#99D095"/>
<path d="M669.039 314.22H676.143V321.376H669.039V314.22Z" fill="#99D095"/>
<path d="M669.095 288H676.199V295.156H669.095V288Z" fill="#99D095"/>
<path d="M669.039 327.543H676.143V334.699H669.039V327.543Z" fill="#99D095"/>
<path d="M551.432 259.899H558.536V267.055H551.432V259.899Z" fill="#19A7E0"/>
<path d="M551.432 273.815H558.536V280.971H551.432V273.815Z" fill="#19A7E0"/>
<path d="M564.868 273.815H571.972V280.971H564.868V273.815Z" fill="#19A7E0"/>
<path d="M551.432 288H558.536V295.156H551.432V288Z" fill="#19A7E0"/>
<path d="M564.868 288H571.972V295.156H564.868V288Z" fill="#19A7E0"/>
<path d="M564.868 302.185H571.972V309.341H564.868V302.185Z" fill="#19A7E0"/>
<path d="M484.353 50.277H544.722V360H484.353V50.277Z" fill="#F59AA8"/>
<path d="M515.239 50.277H544.722V360H515.239V50.277Z" fill="#EF5B6F"/>
<path d="M491.372 36.1343H539.106V123.818H491.372V36.1343Z" fill="#F59AA8"/>
<path d="M515.239 36.1343H539.106V123.818H515.239V36.1343Z" fill="#EF5B6F"/>
<path d="M484.353 50.277H544.722V61.5911H484.353V50.277Z" fill="#EF5A6F"/>
<path d="M336.941 282.216H471.718V360H336.941V282.216Z" fill="#99D095"/>
<path d="M0 283.63H44.9254V360H0V283.63Z" fill="#4FB857"/>
<path d="M404.329 282.216H471.718V360H404.329V282.216Z" fill="#4FB857"/>
<path d="M445.001 298.607H452.105V305.763H445.001V298.607Z" fill="#99D095"/>
<path d="M415.589 298.607H422.693V305.763H415.589V298.607Z" fill="#99D095"/>
<path d="M386.177 298.607H393.281V305.763H386.177V298.607Z" fill="#4FB858"/>
<path d="M356.751 298.607H363.854V305.763H356.751V298.607Z" fill="#4FB858"/>
<path d="M445.001 315.267H452.105V322.423H445.001V315.267Z" fill="#99D095"/>
<path d="M415.589 315.267H422.693V322.423H415.589V315.267Z" fill="#99D095"/>
<path d="M386.177 315.267H393.281V322.423H386.177V315.267Z" fill="#4FB858"/>
<path d="M356.751 315.267H363.854V322.423H356.751V315.267Z" fill="#4FB858"/>
<path d="M445.001 332.012H452.105V339.168H445.001V332.012Z" fill="#99D095"/>
<path d="M415.589 332.012H422.693V339.168H415.589V332.012Z" fill="#99D095"/>
<path d="M386.177 332.012H393.281V339.168H386.177V332.012Z" fill="#4FB858"/>
<path d="M356.751 332.012H363.854V339.168H356.751V332.012Z" fill="#4FB858"/>
<path d="M44.9677 182.92H104.143V191.052H44.9677V182.92Z" fill="#F59AA8"/>
<path d="M3.36938 304.787H32.9503V312.919H3.36938V304.787Z" fill="#99D095"/>
<path d="M3.36938 318.845H32.9503V326.977H3.36938V318.845Z" fill="#99D095"/>
<path d="M3.36938 333.652H32.9503V341.784H3.36938V333.652Z" fill="#99D095"/>
<path d="M437.42 130.084H484.507V138.216H437.42V130.084Z" fill="#19A7E0"/>
<path d="M437.42 154.466H484.507V162.598H437.42V154.466Z" fill="#19A7E0"/>
<path d="M437.42 178.862H484.507V186.993H437.42V178.862Z" fill="#19A7E0"/>
<path d="M335.13 158.722H394.305V166.854H335.13V158.722Z" fill="#19A7E0"/>
<path d="M335.13 178.862H394.305V186.993H335.13V178.862Z" fill="#19A7E0"/>
<path d="M335.13 199.001H394.305V207.133H335.13V199.001Z" fill="#19A7E0"/>
<path d="M335.13 219.14H394.305V227.272H335.13V219.14Z" fill="#19A7E0"/>
<path d="M335.13 239.279H394.305V247.411H335.13V239.279Z" fill="#19A7E0"/>
<path d="M335.13 259.418H394.305V267.55H335.13V259.418Z" fill="#19A7E0"/>
<path d="M71.6 249.688H206.376V360H71.6V249.688Z" fill="#4DC2BD"/>
<path d="M232.56 192.226H239.663V199.382H232.56V192.226Z" fill="#F59AA8"/>
<path d="M212.357 192.226H219.461V199.382H212.357V192.226Z" fill="#F59AA8"/>
<path d="M232.56 211.078H239.663V218.235H232.56V211.078Z" fill="#F59AA8"/>
<path d="M212.357 211.078H219.461V218.235H212.357V211.078Z" fill="#F59AA8"/>
<path d="M232.56 229.916H239.663V237.073H232.56V229.916Z" fill="#F59AA8"/>
<path d="M212.357 229.916H219.461V237.073H212.357V229.916Z" fill="#F59AA8"/>
<path d="M232.56 248.754H239.663V255.91H232.56V248.754Z" fill="#F59AA8"/>
<path d="M212.357 248.754H219.461V255.91H212.357V248.754Z" fill="#F59AA8"/>
<path d="M232.56 267.592H239.663V274.748H232.56V267.592Z" fill="#F59AA8"/>
<path d="M212.357 267.592H219.461V274.748H212.357V267.592Z" fill="#F59AA8"/>
<path d="M232.56 286.43H239.663V293.586H232.56V286.43Z" fill="#F59AA8"/>
<path d="M212.357 286.43H219.461V293.586H212.357V286.43Z" fill="#F59AA8"/>
<path d="M232.56 305.282H239.663V312.438H232.56V305.282Z" fill="#F59AA8"/>
<path d="M212.357 305.282H219.461V312.438H212.357V305.282Z" fill="#F59AA8"/>
<path d="M232.56 324.12H239.663V331.276H232.56V324.12Z" fill="#F59AA8"/>
<path d="M212.357 324.12H219.461V331.276H212.357V324.12Z" fill="#F59AA8"/>
<path d="M232.56 342.958H239.663V350.114H232.56V342.958Z" fill="#F59AA8"/>
<path d="M212.357 342.958H219.461V350.114H212.357V342.958Z" fill="#F59AA8"/>
<path d="M192.155 192.226H199.259V199.382H192.155V192.226Z" fill="#EF5A6F"/>
<path d="M171.938 192.226H179.042V199.382H171.938V192.226Z" fill="#EF5A6F"/>
<path d="M192.155 211.078H199.259V218.235H192.155V211.078Z" fill="#EF5A6F"/>
<path d="M171.938 211.078H179.042V218.235H171.938V211.078Z" fill="#EF5A6F"/>
<path d="M192.155 229.916H199.259V237.073H192.155V229.916Z" fill="#EF5A6F"/>
<path d="M171.938 229.916H179.042V237.073H171.938V229.916Z" fill="#EF5A6F"/>
<path d="M192.155 248.754H199.259V255.91H192.155V248.754Z" fill="#EF5A6F"/>
<path d="M171.938 248.754H179.042V255.91H171.938V248.754Z" fill="#EF5A6F"/>
<path d="M192.155 267.592H199.259V274.748H192.155V267.592Z" fill="#EF5A6F"/>
<path d="M171.938 267.592H179.042V274.748H171.938V267.592Z" fill="#EF5A6F"/>
<path d="M192.155 286.43H199.259V293.586H192.155V286.43Z" fill="#EF5A6F"/>
<path d="M171.938 286.43H179.042V293.586H171.938V286.43Z" fill="#EF5A6F"/>
<path d="M192.155 305.282H199.259V312.438H192.155V305.282Z" fill="#EF5A6F"/>
<path d="M171.938 305.282H179.042V312.438H171.938V305.282Z" fill="#EF5A6F"/>
<path d="M192.155 324.12H199.259V331.276H192.155V324.12Z" fill="#EF5A6F"/>
<path d="M171.938 324.12H179.042V331.276H171.938V324.12Z" fill="#EF5A6F"/>
<path d="M192.155 342.958H199.259V350.114H192.155V342.958Z" fill="#EF5A6F"/>
<path d="M171.938 342.958H179.042V350.114H171.938V342.958Z" fill="#EF5A6F"/>
<path d="M138.988 249.688H206.376V360H138.988V249.688Z" fill="#19A7E0"/>
<path d="M176.543 275.569H185.542V291.027H176.543V275.569Z" fill="#4DC2BD"/>
<path d="M113.254 275.569H122.253V291.027H113.254V275.569Z" fill="#19A7E0"/>
<path d="M92.1675 275.569H101.167V291.027H92.1675V275.569Z" fill="#19A7E0"/>
<path d="M155.456 275.569H164.455V291.027H155.456V275.569Z" fill="#4DC2BD"/>
<path d="M134.355 275.569H143.354V291.027H134.355V275.569Z" fill="#4DC2BD"/>
<path d="M177.048 298.918H186.048V314.376H177.048V298.918Z" fill="#4DC2BD"/>
<path d="M113.76 298.918H122.759V314.376H113.76V298.918Z" fill="#19A7E0"/>
<path d="M92.6588 298.918H101.658V314.376H92.6588V298.918Z" fill="#19A7E0"/>
<path d="M155.948 298.918H164.947V314.376H155.948V298.918Z" fill="#4DC2BD"/>
<path d="M134.861 298.918H143.86V314.376H134.861V298.918Z" fill="#4DC2BD"/>
<path d="M176.796 322.253H185.795V337.711H176.796V322.253Z" fill="#4DC2BD"/>
<path d="M113.507 322.253H122.506V337.711H113.507V322.253Z" fill="#19A7E0"/>
<path d="M92.4062 322.253H101.405V337.711H92.4062V322.253Z" fill="#19A7E0"/>
<path d="M155.695 322.253H164.694V337.711H155.695V322.253Z" fill="#4DC2BD"/>
<path d="M134.608 322.253H143.607V337.711H134.608V322.253Z" fill="#4DC2BD"/>
<path d="M530.64 74.7154H537.744V81.8715H530.64V74.7154Z" fill="#F59AA8"/>
<path d="M530.64 87.9104H537.744V95.0666H530.64V87.9104Z" fill="#F59AA8"/>
<path d="M530.64 100.653H537.744V107.809H530.64V100.653Z" fill="#F59AA8"/>
<path d="M530.64 114.159H537.744V121.315H530.64V114.159Z" fill="#F59AA8"/>
<path d="M530.64 126.506H537.744V133.662H530.64V126.506Z" fill="#F59AA8"/>
<path d="M530.64 138.216H537.744V145.372H530.64V138.216Z" fill="#F59AA8"/>
<path d="M530.64 150.887H537.744V158.044H530.64V150.887Z" fill="#F59AA8"/>
<path d="M577.012 96.9476H607.898V360H577.012V96.9476Z" fill="#F59AA8"/>
<path d="M592.455 99.7761H607.898V360H592.455V99.7761Z" fill="#EF5B6F"/>
<path d="M577.012 94.119H607.898V101.19H577.012V94.119Z" fill="#EF5A6F"/>
<path d="M577.012 108.262H607.898V115.333H577.012V108.262Z" fill="#EF5A6F"/>
<path d="M549.341 43.7007C549.338 52.3478 551.881 60.8016 556.648 67.9926C561.415 75.1836 568.193 80.7889 576.123 84.0993C584.053 87.4097 592.779 88.2766 601.198 86.5903C609.617 84.904 617.351 80.7403 623.421 74.6258C629.491 68.5113 633.624 60.7208 635.298 52.2397C636.972 43.7585 636.111 34.9677 632.825 26.9793C629.539 18.9909 623.975 12.1637 616.836 7.36138C609.698 2.55901 601.306 -0.00279479 592.722 2.28802e-06C581.217 0.00375095 570.185 4.60912 562.051 12.8038C553.916 20.9984 549.344 32.1117 549.341 43.7007V43.7007Z" fill="#EF5B6F"/>
<path d="M593.016 77.4308C574.524 77.4308 559.533 62.3293 559.533 43.7007C559.533 25.072 574.524 9.97055 593.016 9.97055C611.509 9.97055 626.5 25.072 626.5 43.7007C626.5 62.3293 611.509 77.4308 593.016 77.4308Z" fill="#EF5A6F"/>
<path d="M562.018 43.7006C562.509 60.7001 575.776 74.9558 593.016 74.9558C601.215 74.8674 609.053 71.5452 614.849 65.7019C620.644 59.8587 623.935 51.9601 624.015 43.7006C623.938 35.4428 620.648 27.545 614.851 21.7055C609.054 15.8661 601.214 12.5512 593.016 12.4738C575.776 12.4738 562.509 26.7012 562.018 43.7006C561.92 46.9252 556.95 46.9393 557.034 43.7006C557.469 28.7236 566.117 15.3164 580.185 9.89983C587.26 7.22811 594.987 6.8496 602.287 8.8172C609.586 10.7848 616.093 15.0002 620.898 20.8745C641.508 46.4302 618.736 85.2375 586.544 79.34C569.318 76.2003 557.539 60.9546 557.062 43.7006C556.95 40.4761 561.92 40.4761 562.018 43.7006Z" fill="#F59AA8"/>
<path d="M618.161 21.624L570.806 69.2988C570.339 69.7676 569.706 70.0303 569.047 70.029C568.387 70.0276 567.755 69.7624 567.29 69.2917C566.824 68.821 566.563 68.1833 566.565 67.5189C566.566 66.8545 566.829 66.2178 567.297 65.749L614.651 18.0742C615.118 17.6054 615.751 17.3427 616.411 17.3441C617.07 17.3454 617.702 17.6106 618.168 18.0813C618.633 18.552 618.894 19.1898 618.893 19.8541C618.891 20.5185 618.628 21.1552 618.161 21.624V21.624Z" fill="#F59AA8"/>
<path d="M603.911 13.0536L562.214 55.0572C561.983 55.2893 561.709 55.4733 561.407 55.5986C561.105 55.7239 560.781 55.788 560.455 55.7874C560.128 55.7867 559.805 55.7213 559.503 55.5948C559.202 55.4683 558.928 55.2832 558.698 55.0501C558.467 54.817 558.284 54.5405 558.16 54.2363C558.036 53.9321 557.972 53.6062 557.973 53.2773C557.973 52.9483 558.038 52.6227 558.164 52.319C558.289 52.0153 558.473 51.7395 558.705 51.5074L600.387 9.51799C600.852 9.04726 601.484 8.78206 602.144 8.78074C602.804 8.77941 603.437 9.04207 603.904 9.51092C604.371 9.97978 604.634 10.6164 604.636 11.2808C604.637 11.9452 604.376 12.5829 603.911 13.0536V13.0536Z" fill="#F59AA8"/>
<path d="M626.149 35.2434L584.453 77.2328C583.975 77.646 583.359 77.8621 582.73 77.838C582.101 77.8138 581.503 77.5511 581.058 77.1025C580.613 76.6538 580.352 76.0523 580.328 75.4183C580.304 74.7843 580.519 74.1645 580.929 73.683L622.597 31.6936C623.064 31.2191 623.7 30.9511 624.363 30.9484C625.027 30.9458 625.664 31.2087 626.135 31.6795C626.606 32.1502 626.872 32.7901 626.875 33.4585C626.877 34.1269 626.616 34.7689 626.149 35.2434V35.2434Z" fill="#F59AA8"/>
<path d="M79.8129 210.272H138.988V218.404H79.8129V210.272Z" fill="#EF5A6F"/>
<path d="M365.02 158.722H394.305V166.854H365.02V158.722Z" fill="#4DC2BD"/>
<path d="M365.02 178.862H394.305V186.993H365.02V178.862Z" fill="#4DC2BD"/>
<path d="M365.02 199.001H394.305V207.133H365.02V199.001Z" fill="#4DC2BD"/>
<path d="M365.02 219.14H394.305V227.272H365.02V219.14Z" fill="#4DC2BD"/>
<path d="M365.02 239.279H394.305V247.411H365.02V239.279Z" fill="#4DC2BD"/>
<path d="M365.02 259.418H394.305V267.55H365.02V259.418Z" fill="#4DC2BD"/>
<path d="M44.9677 182.92H92.6588V191.052H44.9677V182.92Z" fill="#EF5A6F"/>
<path d="M92.6588 210.272H138.988V218.404H92.6588V210.272Z" fill="#F59AA8"/>
<path d="M134.355 275.569H138.988V291.027H134.355V275.569Z" fill="#19A7E0"/>
<path d="M134.861 298.918H138.988V314.376H134.861V298.918Z" fill="#19A7E0"/>
<path d="M134.608 322.253H138.988V337.711H134.608V322.253Z" fill="#19A7E0"/>
<path d="M515.239 50.277H544.722V61.5911H515.239V50.277Z" fill="#F59AA8"/>
<path d="M592.455 94.119H607.898V101.19H592.455V94.119Z" fill="#F59AA8"/>
<path d="M592.455 108.262H607.898V115.333H592.455V108.262Z" fill="#F59AA8"/>
<path d="M284.842 225.193H288.422V232.349H284.842V225.193Z" fill="#FFE886"/>
<path d="M284.87 239.364H288.45V246.52H284.87V239.364Z" fill="#FFE886"/>
</g>
<defs>
<clipPath id="clip0">
<rect width="716" height="360" transform="matrix(-1 0 0 1 716 0)" fill="white"/>
</clipPath>
</defs>
</svg>
